<svg width="29" height="29" viewBox="0 0 29 29" fill="none" xmlns="http://www.w3.org/2000/svg">
<path d="M19.8125 23.4215L19.0541 17.5164C18.9466 16.68 18.5286 15.9106 17.8787 15.3528C17.2288 14.7951 16.3917 14.4875 15.525 14.4878H12.9131C12.0467 14.488 11.2102 14.7959 10.5608 15.3536C9.9114 15.9113 9.49375 16.6804 9.38632 17.5164L8.62669 23.4215C8.585 23.7459 8.61476 24.0752 8.714 24.3876C8.81324 24.7 8.97969 24.9882 9.20228 25.2333C9.42488 25.4783 9.69853 25.6745 10.0051 25.8087C10.3116 25.943 10.644 26.0124 10.9802 26.0121H17.4602C17.7963 26.0122 18.1285 25.9427 18.4349 25.8084C18.7413 25.674 19.0148 25.4778 19.2373 25.2328C19.4598 24.9878 19.6261 24.6996 19.7253 24.3873C19.8245 24.075 19.8542 23.7458 19.8125 23.4215V23.4215Z" stroke="#4267B2" stroke-linecap="round" stroke-linejoin="round"/>
<path d="M14.2212 9.87797C16.1847 9.87797 17.7764 8.33009 17.7764 6.42068C17.7764 4.51126 16.1847 2.96338 14.2212 2.96338C12.2577 2.96338 10.666 4.51126 10.666 6.42068C10.666 8.33009 12.2577 9.87797 14.2212 9.87797Z" stroke="#4267B2"/>
<path d="M4.73927 13.3353C6.04826 13.3353 7.1094 12.3034 7.1094 11.0305C7.1094 9.75751 6.04826 8.72559 4.73927 8.72559C3.43028 8.72559 2.36914 9.75751 2.36914 11.0305C2.36914 12.3034 3.43028 13.3353 4.73927 13.3353Z" stroke="#4267B2"/>
<path d="M23.7012 13.3353C25.0102 13.3353 26.0713 12.3034 26.0713 11.0305C26.0713 9.75751 25.0102 8.72559 23.7012 8.72559C22.3922 8.72559 21.3311 9.75751 21.3311 11.0305C21.3311 12.3034 22.3922 13.3353 23.7012 13.3353Z" stroke="#4267B2"/>
<path d="M23.701 16.7925H24.0636C24.6247 16.7924 25.1676 16.9859 25.5957 17.3385C26.0239 17.6911 26.3095 18.18 26.4018 18.7182L26.7964 21.0231C26.853 21.3533 26.835 21.6915 26.7436 22.0143C26.6522 22.3371 26.4895 22.6366 26.267 22.892C26.0445 23.1475 25.7674 23.3527 25.455 23.4935C25.1427 23.6342 24.8025 23.7071 24.4583 23.7071H20.1458M4.73998 16.7925H4.37735C3.8163 16.7924 3.27341 16.9859 2.84527 17.3385C2.41714 17.6911 2.13151 18.18 2.03922 18.7182L1.64459 21.0231C1.58796 21.3533 1.60598 21.6915 1.69741 22.0143C1.78884 22.3371 1.95147 22.6366 2.17399 22.892C2.39652 23.1475 2.6736 23.3527 2.98596 23.4935C3.29832 23.6342 3.63846 23.7071 3.98273 23.7071H8.29518L4.73998 16.7925Z" stroke="#4267B2" stroke-linecap="round" stroke-linejoin="round"/>
</svg>
