<svg width="38" height="38" viewBox="0 0 38 38" fill="none" xmlns="http://www.w3.org/2000/svg">
<path d="M4.75 4.75C4.75 3.49022 5.25044 2.28204 6.14124 1.39124C7.03204 0.500445 8.24022 0 9.5 0L28.5 0C29.7598 0 30.968 0.500445 31.8588 1.39124C32.7496 2.28204 33.25 3.49022 33.25 4.75V36.8125C33.2499 37.0273 33.1915 37.2381 33.0811 37.4223C32.9707 37.6066 32.8124 37.7574 32.623 37.8588C32.4336 37.9602 32.2203 38.0083 32.0058 37.998C31.7912 37.9878 31.5834 37.9195 31.4046 37.8005L19 31.1149L6.59537 37.8005C6.41655 37.9195 6.2088 37.9878 5.99424 37.998C5.77969 38.0083 5.56637 37.9602 5.377 37.8588C5.18763 37.7574 5.02931 37.6066 4.9189 37.4223C4.80848 37.2381 4.75011 37.0273 4.75 36.8125V4.75ZM9.5 2.375C8.87011 2.375 8.26602 2.62522 7.82062 3.07062C7.37522 3.51602 7.125 4.12011 7.125 4.75V34.5943L18.3421 28.6995C18.537 28.5698 18.7659 28.5006 19 28.5006C19.2341 28.5006 19.463 28.5698 19.6579 28.6995L30.875 34.5943V4.75C30.875 4.12011 30.6248 3.51602 30.1794 3.07062C29.734 2.62522 29.1299 2.375 28.5 2.375H9.5Z" fill="#4267B2"/>
</svg>
