<svg width="23" height="21" viewBox="0 0 23 21" fill="none" xmlns="http://www.w3.org/2000/svg">
<g clip-path="url(#clip0_298_229)">
<path d="M3 3.50004C3 2.83699 3.26339 2.20109 3.73223 1.73224C4.20107 1.2634 4.83696 1 5.5 1L15.5 1C16.163 1 16.7989 1.2634 17.2678 1.73224C17.7366 2.20109 18 2.83699 18 3.50004V20.3753C17.9999 20.4884 17.9692 20.5993 17.9111 20.6963C17.853 20.7932 17.7697 20.8726 17.67 20.926C17.5703 20.9794 17.4581 21.0047 17.3451 20.9993C17.2322 20.9939 17.1229 20.958 17.0287 20.8953L10.5 17.3765L3.97125 20.8953C3.87713 20.958 3.76779 20.9939 3.65486 20.9993C3.54194 21.0047 3.42967 20.9794 3.33 20.926C3.23033 20.8726 3.14701 20.7932 3.08889 20.6963C3.03078 20.5993 3.00006 20.4884 3 20.3753V3.50004ZM5.5 2.25002C5.16848 2.25002 4.85054 2.38172 4.61612 2.61614C4.3817 2.85057 4.25 3.16851 4.25 3.50004V19.2078L10.1537 16.1052C10.2563 16.037 10.3768 16.0006 10.5 16.0006C10.6232 16.0006 10.7437 16.037 10.8463 16.1052L16.75 19.2078V3.50004C16.75 3.16851 16.6183 2.85057 16.3839 2.61614C16.1495 2.38172 15.8315 2.25002 15.5 2.25002H5.5Z" fill="#4267B2"/>
</g>
<defs>
<clipPath id="clip0_298_229">
<rect width="23" height="20" fill="white" transform="translate(0 0.572266)"/>
</clipPath>
</defs>
</svg>
