<svg width="30" height="30" viewBox="0 0 30 30" fill="none" xmlns="http://www.w3.org/2000/svg">
<path d="M11.4844 3.39648C10.2482 3.39648 9.03987 3.75082 8.01206 4.41469C6.98425 5.07856 6.18318 6.02214 5.71013 7.12611C5.23708 8.23008 5.11331 9.44485 5.35447 10.6168C5.59562 11.7888 6.19088 12.8653 7.06496 13.7103C7.93904 14.5552 9.05268 15.1306 10.2651 15.3637C11.4774 15.5968 12.7341 15.4772 13.8761 15.0199C15.0182 14.5626 15.9943 13.7883 16.6811 12.7947C17.3678 11.8012 17.7344 10.6331 17.7344 9.43815C17.7344 7.8358 17.0759 6.29908 15.9038 5.16605C14.7317 4.03302 13.142 3.39648 11.4844 3.39648ZM11.4844 13.0632C10.7427 13.0632 10.0177 12.8505 9.40099 12.4522C8.7843 12.0539 8.30366 11.4878 8.01983 10.8254C7.736 10.163 7.66174 9.43413 7.80643 8.73095C7.95112 8.02777 8.30828 7.38185 8.83272 6.87489C9.35717 6.36792 10.0254 6.02268 10.7528 5.8828C11.4802 5.74293 12.2342 5.81472 12.9194 6.08909C13.6047 6.36346 14.1903 6.82808 14.6024 7.42421C15.0144 8.02034 15.2344 8.72119 15.2344 9.43815C15.2344 10.3996 14.8393 11.3216 14.136 12.0014C13.4328 12.6812 12.4789 13.0632 11.4844 13.0632ZM22.7344 26.3548V25.1465C22.7344 22.9032 21.8125 20.7518 20.1716 19.1655C18.5306 17.5793 16.305 16.6882 13.9844 16.6882H8.98438C6.66373 16.6882 4.43813 17.5793 2.79719 19.1655C1.15625 20.7518 0.234375 22.9032 0.234375 25.1465V26.3548H2.73438V25.1465C2.73438 23.5441 3.39286 22.0074 4.56496 20.8744C5.73706 19.7414 7.32677 19.1048 8.98438 19.1048H13.9844C15.642 19.1048 17.2317 19.7414 18.4038 20.8744C19.5759 22.0074 20.2344 23.5441 20.2344 25.1465V26.3548H22.7344Z" fill="#4267B2"/>
</svg>
