<svg width="40" height="40" viewBox="0 0 40 40" fill="none" xmlns="http://www.w3.org/2000/svg">
<g id="Group 37096">
<circle id="Ellipse 31" cx="20" cy="20" r="19.5" fill="#D9D9D9" stroke="#1E81C4"/>
<path id="Vector" d="M29.2927 31.5599V21.1167L24.4023 18.6595V31.5599H23.7104V27.5868V22.3596V17.4093L26.6632 18.8928V16.2511L21.7728 13.7948V22.3596V27.5868V31.5599H20.9657V22.7933V22.3596V9.82728L25.1169 11.9156V14.2968L25.8552 14.667V11.4572L20.9657 9L16.0749 11.4572V13.9252L19.0518 12.4301V22.3592V22.7929V31.5599H18.2193V26.283V17.7778V13.7943L13.3293 16.2507V19.2038L14.0676 18.8047V16.7086L17.4814 14.994V17.7774V26.5185V31.5599H15.8595V18.4604L11.7074 20.7037V31.5599H9.56641V32.6542H31.4341V31.5599H29.2927ZM28.5543 31.5599H25.1406V19.8605L28.5543 21.5751V31.5599Z" fill="#1E81C4"/>
</g>
</svg>
