<svg width="29" height="28" viewBox="0 0 29 28" fill="none" xmlns="http://www.w3.org/2000/svg">
<path d="M23.4893 10.3718C23.1731 10.3718 22.8601 10.4335 22.5688 10.5531C22.2776 10.6728 22.0139 10.848 21.7934 11.0684L21.4441 11.4185L21.0913 11.0684C20.8708 10.848 20.6072 10.6729 20.3159 10.5532C20.0246 10.4336 19.7116 10.372 19.3955 10.372C19.0793 10.372 18.7663 10.4336 18.475 10.5532C18.1838 10.6729 17.9201 10.848 17.6996 11.0684C17.25 11.5198 16.9986 12.1237 16.9986 12.7521C16.9986 13.3806 17.25 13.9844 17.6996 14.4358L21.4441 18.1507L25.1851 14.4358C25.6347 13.9844 25.8861 13.3806 25.8861 12.7521C25.8861 12.1237 25.6347 11.5198 25.1851 11.0684C24.9646 10.848 24.701 10.6728 24.4097 10.5531C24.1184 10.4335 23.8055 10.3718 23.4893 10.3718ZM1 25.9296H2.7776V21.608C2.77901 20.4622 3.24767 19.3638 4.08077 18.5536C4.91388 17.7435 6.0434 17.2877 7.22159 17.2864H12.5544C13.7326 17.2877 14.8621 17.7435 15.6952 18.5536C16.5283 19.3638 16.997 20.4622 16.9984 21.608V25.9296H18.776V21.608C18.7741 20.0039 18.118 18.4661 16.9516 17.3318C15.7853 16.1976 14.2039 15.5595 12.5544 15.5577H7.22159C5.5721 15.5595 3.99071 16.1976 2.82434 17.3318C1.65797 18.4661 1.00188 20.0039 1 21.608V25.9296ZM9.88799 3.45716C10.7669 3.45716 11.6261 3.71062 12.3569 4.18549C13.0877 4.66036 13.6573 5.3353 13.9937 6.12497C14.3301 6.91465 14.4181 7.78358 14.2466 8.62189C14.0751 9.46021 13.6519 10.2302 13.0304 10.8346C12.4089 11.439 11.617 11.8506 10.755 12.0174C9.89292 12.1841 8.99938 12.0985 8.18734 11.7714C7.37531 11.4444 6.68125 10.8904 6.19294 10.1798C5.70463 9.46907 5.44399 8.63352 5.44399 7.77879C5.44399 6.63262 5.9122 5.5334 6.74561 4.72294C7.57902 3.91248 8.70937 3.45716 9.88799 3.45716ZM9.88799 1.72852C8.65747 1.72852 7.45459 2.08336 6.43146 2.74817C5.40832 3.41298 4.61088 4.35791 4.13999 5.46345C3.66909 6.56899 3.54588 7.7855 3.78594 8.95914C4.026 10.1328 4.61855 11.2108 5.48866 12.057C6.35876 12.9031 7.46734 13.4794 8.67421 13.7128C9.88109 13.9463 11.132 13.8264 12.2689 13.3685C13.4057 12.9106 14.3774 12.1351 15.0611 11.1401C15.7447 10.1452 16.1096 8.97542 16.1096 7.77879C16.1096 6.17416 15.4541 4.63525 14.2873 3.5006C13.1205 2.36595 11.5381 1.72852 9.88799 1.72852Z" fill="#4267B2"/>
</svg>
