<svg width="41" height="44" viewBox="0 0 41 44" fill="none" xmlns="http://www.w3.org/2000/svg">
<g id="noun-broom-2469315 1">
<g id="Group">
<path id="Vector" d="M19.9524 8.201C19.475 8.21525 19.022 8.41386 18.6893 8.7548C18.3566 9.09573 18.1704 9.55217 18.1701 10.0274V18.4242C17.3875 18.7249 16.6915 19.213 16.1438 19.8454C15.5961 20.4778 15.2137 21.2349 15.0303 22.0495L12.7192 32.33C12.7013 32.4105 12.7017 32.4939 12.7205 32.5742C12.7392 32.6545 12.7759 32.7296 12.8277 32.7939C12.8795 32.8582 12.9451 32.9102 13.0198 32.9459C13.0945 32.9817 13.1762 33.0003 13.2591 33.0004H26.7562C26.8392 33.0004 26.9211 32.982 26.9958 32.9463C27.0706 32.9106 27.1364 32.8587 27.1884 32.7943C27.2403 32.7299 27.277 32.6549 27.2959 32.5745C27.3147 32.4941 27.3152 32.4105 27.2972 32.33L24.985 22.0495C24.8015 21.2347 24.4189 20.4776 23.871 19.8452C23.3231 19.2128 22.6269 18.7248 21.8441 18.4242V10.0274C21.844 9.78284 21.7945 9.54083 21.6987 9.31562C21.6028 9.09041 21.4626 8.88661 21.2862 8.71631C21.1098 8.54601 20.9009 8.41265 20.6717 8.32414C20.4426 8.23562 20.198 8.19376 19.9524 8.201ZM20.0453 8.75031C20.3792 8.75985 20.6963 8.89862 20.9291 9.13709C21.1619 9.37555 21.2921 9.69493 21.2921 10.0274V18.2458C20.4502 18.0279 19.5662 18.0279 18.7243 18.2458V10.0274C18.7243 9.85651 18.7587 9.68738 18.8256 9.52997C18.8924 9.37256 18.9903 9.2301 19.1135 9.11101C19.2367 8.99193 19.3826 8.89867 19.5426 8.83672C19.7027 8.77477 19.8736 8.74535 20.0453 8.75031ZM19.8882 18.6367C20.8817 18.6105 21.8565 18.9091 22.6633 19.4867C23.4702 20.0643 24.0645 20.8891 24.3555 21.8348H15.6609C15.9399 20.9281 16.498 20.1316 17.2566 19.5577C18.0151 18.9838 18.9357 18.6617 19.8882 18.6367ZM15.5226 22.3864H24.4927L26.7562 32.4499H23.5833V28.0308C23.5804 27.9596 23.55 27.8922 23.4983 27.8428C23.4467 27.7934 23.3778 27.7658 23.3061 27.7658C23.2345 27.7658 23.1656 27.7934 23.114 27.8428C23.0623 27.8922 23.0319 27.9596 23.029 28.0308V32.4499H20.2842V26.5357C20.2814 26.4645 20.2509 26.3972 20.1993 26.3478C20.1476 26.2984 20.0787 26.2707 20.0071 26.2707C19.9355 26.2707 19.8666 26.2984 19.8149 26.3478C19.7633 26.3972 19.7328 26.4645 19.73 26.5357V32.4499H16.9863V28.0308C16.9826 27.9603 16.9519 27.8938 16.9005 27.8451C16.849 27.7964 16.7807 27.7693 16.7097 27.7693C16.6387 27.7693 16.5704 27.7964 16.519 27.8451C16.4675 27.8938 16.4368 27.9603 16.4331 28.0308V32.4499H13.2591L15.5226 22.3864Z" fill="#1E81C4"/>
</g>
<path id="Ellipse 36" d="M36.75 21C36.75 30.2508 29.2508 37.75 20 37.75C10.7492 37.75 3.25 30.2508 3.25 21C3.25 11.7492 10.7492 4.25 20 4.25C29.2508 4.25 36.75 11.7492 36.75 21Z" fill="white" fill-opacity="0.23" stroke="#1E81C4" stroke-width="0.5"/>
</g>
</svg>
