<svg width="28" height="28" viewBox="0 0 28 28" fill="none" xmlns="http://www.w3.org/2000/svg">
<path d="M9.44963 25.2874L7.73852 27.5118C7.66074 27.6289 7.73852 27.824 7.89408 27.824H9.33297C9.52741 27.824 9.72185 27.6679 9.72185 27.4337C9.72185 26.7313 9.72185 25.3655 9.72185 25.3655C9.72185 25.2484 9.52741 25.1703 9.44963 25.2874Z" fill="black"/>
<path d="M18.5889 25.4048C18.5889 25.4048 18.5889 26.7707 18.5889 27.4731C18.5889 27.6682 18.7444 27.8634 18.9778 27.8634H20.4166C20.5722 27.8634 20.65 27.6682 20.5722 27.5512L18.8611 25.3268C18.7833 25.1707 18.5889 25.2487 18.5889 25.4048Z" fill="black"/>
<path d="M27.6108 10.7315L14.3108 0.390022C14.1163 0.233925 13.8441 0.233925 13.6885 0.390022L0.388545 10.7315C-0.000344023 11.0437 0.1941 11.6681 0.699656 11.6681H2.95521C3.22743 11.6681 3.46077 11.9022 3.46077 12.1754V27.3169C3.46077 27.59 3.6941 27.8242 3.96632 27.8242H5.05521C5.05521 27.7851 5.05521 27.7461 5.0941 27.7071L10.7719 20.2534C10.8108 20.2144 10.8497 20.1754 10.8885 20.1364C11.5108 19.3949 12.3274 18.8876 13.2219 18.6925C13.2608 18.6925 13.2997 18.6925 13.3385 18.7315L13.6497 19.0827C13.6885 19.1217 13.6885 19.1608 13.6885 19.1998L13.1052 26.1461C13.1052 26.1851 13.1052 26.2242 13.1441 26.2632L14.0774 27.3559C14.1163 27.3949 14.1941 27.3949 14.2719 27.3559L15.2052 26.2632C15.2441 26.2242 15.2441 26.1851 15.2441 26.1461L14.6997 19.1998C14.6997 19.1608 14.6997 19.1217 14.7385 19.0827L15.0497 18.7315C15.0885 18.6925 15.1274 18.6925 15.1663 18.6925C16.0997 18.8876 16.9163 19.4339 17.4997 20.1364C17.5385 20.1754 17.5774 20.2144 17.6163 20.2534L23.2163 27.7071C23.2552 27.7461 23.2552 27.7851 23.2552 27.8242H23.9941C24.2663 27.8242 24.4997 27.59 24.4997 27.3169V12.1754C24.4997 11.9022 24.733 11.6681 25.0052 11.6681H27.2608C27.7663 11.6681 27.9997 11.0437 27.6108 10.7315ZM14.1552 17.3266C12.4441 17.3266 11.0441 15.8047 11.0441 13.9315C11.0441 12.0583 12.4441 10.5364 14.1552 10.5364C15.8663 10.5364 17.2663 12.0583 17.2663 13.9315C17.2663 15.8047 15.8663 17.3266 14.1552 17.3266Z" fill="black"/>
</svg>
