<svg width="40" height="38" viewBox="0 0 40 38" fill="none" xmlns="http://www.w3.org/2000/svg">
<path d="M20.0092 8.94482C19.0019 8.94482 18.0172 9.22999 17.1796 9.76427C16.3421 10.2986 15.6893 11.0579 15.3039 11.9464C14.9184 12.8349 14.8175 13.8125 15.014 14.7557C15.2106 15.6989 15.6956 16.5653 16.4079 17.2453C17.1201 17.9253 18.0276 18.3884 19.0156 18.576C20.0035 18.7636 21.0275 18.6674 21.9582 18.2993C22.8888 17.9313 23.6842 17.3081 24.2438 16.5085C24.8034 15.7089 25.1021 14.7688 25.1021 13.8071C25.1021 12.5176 24.5656 11.2808 23.6104 10.369C22.6553 9.4571 21.3599 8.94482 20.0092 8.94482ZM20.0092 16.7245C19.4048 16.7245 18.814 16.5534 18.3115 16.2329C17.8089 15.9123 17.4173 15.4567 17.186 14.9236C16.9547 14.3905 16.8942 13.8039 17.0121 13.238C17.13 12.6721 17.421 12.1522 17.8484 11.7442C18.2757 11.3362 18.8202 11.0584 19.413 10.9458C20.0058 10.8332 20.6202 10.891 21.1786 11.1118C21.7369 11.3326 22.2142 11.7066 22.5499 12.1863C22.8857 12.6661 23.0649 13.2301 23.0649 13.8071C23.0649 14.5809 22.743 15.3229 22.1699 15.8701C21.5969 16.4172 20.8196 16.7245 20.0092 16.7245ZM29.1765 27.4216V26.4492C29.1765 24.6438 28.4253 22.9123 27.0881 21.6357C25.751 20.3591 23.9374 19.6419 22.0463 19.6419H17.972C16.0809 19.6419 14.2673 20.3591 12.9302 21.6357C11.593 22.9123 10.8418 24.6438 10.8418 26.4492V27.4216H12.879V26.4492C12.879 25.1596 13.4156 23.9229 14.3707 23.011C15.3258 22.0991 16.6212 21.5869 17.972 21.5869H22.0463C23.3971 21.5869 24.6925 22.0991 25.6476 23.011C26.6027 23.9229 27.1393 25.1596 27.1393 26.4492V27.4216H29.1765Z" fill="#4267B2"/>
<path d="M38.8611 19C38.8611 29.2086 30.4289 37.5 20.0077 37.5C9.58652 37.5 1.1543 29.2086 1.1543 19C1.1543 8.79138 9.58652 0.5 20.0077 0.5C30.4289 0.5 38.8611 8.79138 38.8611 19Z" stroke="#4267B2"/>
</svg>
