<svg width="14" height="3" viewBox="0 0 14 3" fill="none" xmlns="http://www.w3.org/2000/svg">
<path d="M2.45061 0.287406L0.739497 2.51179C0.661719 2.62887 0.739497 2.82399 0.895052 2.82399H2.33394C2.52839 2.82399 2.72283 2.66789 2.72283 2.43375C2.72283 1.73131 2.72283 0.365453 2.72283 0.365453C2.72283 0.24838 2.52839 0.170332 2.45061 0.287406Z" fill="black"/>
<path d="M11.5898 0.404834C11.5898 0.404834 11.5898 1.77069 11.5898 2.47313C11.5898 2.66825 11.7454 2.86337 11.9787 2.86337H13.4176C13.5732 2.86337 13.651 2.66825 13.5732 2.55118L11.8621 0.326786C11.7843 0.170688 11.5898 0.248736 11.5898 0.404834Z" fill="black"/>
</svg>
