<svg width="25" height="27" viewBox="0 0 25 27" fill="none" xmlns="http://www.w3.org/2000/svg">
<path d="M20.4424 14.4465V12.2113H18.6648V14.8043C18.6648 15.0335 18.7585 15.2533 18.9252 15.4154L21.3312 17.7551V19.1259H1.7776V17.7551L4.18358 15.4154C4.35027 15.2533 4.44394 15.0335 4.44399 14.8043V11.347C4.44152 10.1324 4.76867 8.93876 5.39242 7.88651C6.01617 6.83427 6.91441 5.96072 7.99643 5.35412C9.07845 4.74751 10.3059 4.42932 11.5549 4.43169C12.8038 4.43405 14.03 4.75689 15.1096 5.36759V3.43583C14.2635 3.07153 13.3637 2.83935 12.4432 2.74783V0.975098H10.6656V2.74696C8.47432 2.96385 6.44358 3.96317 4.96605 5.55168C3.48852 7.14019 2.66915 9.20506 2.6664 11.347V14.4465L0.260418 16.7862C0.0937244 16.9482 5.03393e-05 17.1681 0 17.3973V19.9902C0 20.2195 0.093641 20.4393 0.260323 20.6014C0.427005 20.7635 0.653075 20.8546 0.888799 20.8546H7.11039V21.7189C7.11039 22.8651 7.57859 23.9643 8.41201 24.7747C9.24542 25.5852 10.3758 26.0405 11.5544 26.0405C12.733 26.0405 13.8634 25.5852 14.6968 24.7747C15.5302 23.9643 15.9984 22.8651 15.9984 21.7189V20.8546H22.22C22.4557 20.8546 22.6818 20.7635 22.8484 20.6014C23.0151 20.4393 23.1088 20.2195 23.1088 19.9902V17.3973C23.1087 17.1681 23.015 16.9482 22.8483 16.7862L20.4424 14.4465ZM14.2208 21.7189C14.2208 22.4066 13.9399 23.0661 13.4398 23.5524C12.9398 24.0387 12.2616 24.3119 11.5544 24.3119C10.8472 24.3119 10.169 24.0387 9.66896 23.5524C9.16891 23.0661 8.88799 22.4066 8.88799 21.7189V20.8546H14.2208V21.7189Z" fill="#4267B2"/>
<path d="M20.9761 10.4825C22.9396 10.4825 24.5313 8.93458 24.5313 7.02517C24.5313 5.11576 22.9396 3.56787 20.9761 3.56787C19.0126 3.56787 17.4209 5.11576 17.4209 7.02517C17.4209 8.93458 19.0126 10.4825 20.9761 10.4825Z" fill="#4267B2"/>
</svg>
