<svg width="30" height="30" viewBox="0 0 30 30" fill="none" xmlns="http://www.w3.org/2000/svg">
<g id="noun-hashtag-3204358 1">
<g id="Group">
<path id="Vector" d="M10.5 10.7309H11.7382L11.6272 9.30759C11.5955 8.90018 11.9044 8.54446 12.3175 8.51301C12.733 8.48123 13.0911 8.7867 13.1228 9.19411L13.2426 10.7309H16.2382L16.1272 9.30759C16.0955 8.90018 16.4044 8.54446 16.8175 8.51301C17.2339 8.48123 17.5911 8.7867 17.6228 9.19411L17.7426 10.7309H19.125C19.5392 10.7309 19.875 11.0622 19.875 11.4709C19.875 11.8795 19.5392 12.2109 19.125 12.2109H17.8579L18.0888 15.1709H19.5C19.9142 15.1709 20.25 15.5022 20.25 15.9109C20.25 16.3195 19.9142 16.6509 19.5 16.6509H18.2041L18.3728 18.8141C18.4045 19.2216 18.0956 19.5773 17.6825 19.6087C17.6629 19.6101 17.6435 19.6109 17.6243 19.6109C17.2361 19.6109 16.9074 19.3158 16.8772 18.9276L16.6998 16.6509H13.7041L13.8728 18.8141C13.9045 19.2216 13.5956 19.5773 13.1825 19.6087C13.1629 19.6101 13.1435 19.6109 13.1243 19.6109C12.7361 19.6109 12.4074 19.3158 12.3772 18.9276L12.1998 16.6509H10.875C10.4608 16.6509 10.125 16.3195 10.125 15.9109C10.125 15.5022 10.4608 15.1709 10.875 15.1709H12.0842L11.8535 12.2109H10.5C10.0858 12.2109 9.75 11.8795 9.75 11.4709C9.75 11.0622 10.0858 10.7309 10.5 10.7309ZM13.5888 15.1709H16.5842L16.3535 12.2109H13.3579L13.5888 15.1709Z" fill="black"/>
<path id="Vector_2" d="M15 4.44043C20.1694 4.44043 24.375 8.58991 24.375 13.6904C24.375 15.9451 23.5488 18.1035 22.0437 19.7931L23.6076 24.679C23.6543 24.8251 23.605 24.9845 23.4836 25.0799C23.4157 25.1333 23.3329 25.1604 23.25 25.1604C23.1845 25.1604 23.1189 25.1436 23.06 25.1093L18.3016 22.3477C17.244 22.7411 16.1341 22.9404 15 22.9404C9.83055 22.9404 5.625 18.791 5.625 13.6904C5.625 8.58991 9.83055 4.44043 15 4.44043ZM15 22.2004C16.1005 22.2004 17.1758 21.9964 18.1961 21.5943C18.3036 21.552 18.4257 21.5612 18.5253 21.619L22.5983 23.9829L21.264 19.8144C21.2235 19.6879 21.2547 19.5499 21.3457 19.4524C22.8155 17.8771 23.625 15.8308 23.625 13.6904C23.625 8.99805 19.7558 5.18043 15 5.18043C10.2442 5.18043 6.375 8.99805 6.375 13.6904C6.375 18.3828 10.2442 22.2004 15 22.2004Z" fill="black"/>
</g>
</g>
</svg>
