<svg width="29" height="30" viewBox="0 0 29 30" fill="none" xmlns="http://www.w3.org/2000/svg">
<g clip-path="url(#clip0_283_13914)">
<path d="M3.75387 5.64727L4.51102 4.89465V10.2857C4.51102 10.4119 4.61398 10.5142 4.74096 10.5142H12.0992C12.2262 10.5142 12.3291 10.4119 12.3291 10.2857V4.89459L13.0863 5.64722C13.1312 5.69185 13.19 5.71419 13.2489 5.71419C13.3077 5.71419 13.3666 5.69185 13.4115 5.64722C13.5013 5.55796 13.5013 5.41322 13.4115 5.32402L8.58269 0.524017C8.49284 0.434703 8.34729 0.434703 8.25749 0.524017L3.42867 5.32402C3.33888 5.41327 3.33888 5.55802 3.42867 5.64722C3.51852 5.73653 3.66408 5.73653 3.75387 5.64727Z" fill="black"/>
<path d="M15.019 4.16397L15.5596 3.64237V7.7714C15.5596 7.89763 15.6626 7.99997 15.7895 7.99997H21.7462C21.8732 7.99997 21.9761 7.89763 21.9761 7.7714V3.64237L22.5167 4.16397C22.5614 4.20711 22.6192 4.22854 22.6769 4.22854C22.7369 4.22854 22.7968 4.20534 22.8419 4.15917C22.9304 4.06854 22.9282 3.92386 22.8371 3.83597L18.928 0.0645429C18.8388 -0.0215143 18.697 -0.0215143 18.6077 0.0645429L14.6987 3.83597C14.6076 3.92386 14.6054 4.06854 14.6939 4.15917C14.7823 4.24974 14.9278 4.25191 15.019 4.16397Z" fill="black"/>
<path d="M28.9311 14.1224L27.5531 12.7791C27.553 12.779 27.5529 12.7788 27.5528 12.7787L22.9525 8.29387C22.8631 8.20673 22.7199 8.20673 22.6305 8.29387L18.0302 12.7787C18.0301 12.7788 18.03 12.779 18.0299 12.7791L16.6519 14.1224C16.5613 14.2108 16.5599 14.3555 16.6488 14.4456C16.7377 14.5358 16.8833 14.5371 16.974 14.4488L17.9627 13.4849V20.1142C17.9627 20.2404 18.0656 20.3428 18.1926 20.3428H27.3904C27.5174 20.3428 27.6203 20.2404 27.6203 20.1142V13.4849L28.609 14.4488C28.6537 14.4924 28.7119 14.5142 28.77 14.5142C28.8297 14.5142 28.8892 14.4914 28.9342 14.4457C29.0232 14.3555 29.0217 14.2108 28.9311 14.1224Z" fill="black"/>
<path d="M13.5938 22.0573C13.6534 22.0573 13.7129 22.0344 13.758 21.9888C13.8469 21.8987 13.8454 21.754 13.7548 21.6656L12.1469 20.098C12.1469 20.098 12.1467 20.0979 12.1466 20.0978L7.07285 15.1513C6.98341 15.0642 6.84027 15.0642 6.75082 15.1513L0.0689367 21.6656C-0.0217187 21.754 -0.0231558 21.8987 0.065775 21.9888C0.154706 22.0789 0.300318 22.0804 0.390973 21.9919L1.63669 20.7775V28.5716C1.63669 28.6978 1.73965 28.8002 1.86664 28.8002H11.9842C12.1112 28.8002 12.2141 28.6978 12.2141 28.5716V20.8038L13.4328 21.9919C13.4775 22.0355 13.5357 22.0573 13.5938 22.0573Z" fill="black"/>
<path d="M21.6459 23.7823L10.257 15.3739L11.3636 15.4281C11.4967 15.4338 11.6105 15.3259 11.6047 15.1895C11.5996 15.0698 11.4963 14.9769 11.3759 14.971L10.2454 14.9156L17.9095 10.068L17.4279 11.0439C17.3771 11.147 17.405 11.2752 17.5004 11.3398C17.5411 11.3674 17.5864 11.3802 17.6308 11.3802C17.7157 11.3802 17.7974 11.3331 17.8374 11.2522L18.5925 9.72199C18.6299 9.64616 18.6434 9.5593 18.6226 9.47748C18.5811 9.31502 18.4364 9.21033 18.2782 9.21193L16.5078 9.23005C16.388 9.23125 16.282 9.31919 16.2714 9.43776C16.2594 9.57376 16.3668 9.6873 16.5004 9.6873C16.5012 9.6873 16.502 9.6873 16.5028 9.6873L17.6735 9.6753L9.52007 14.8325C9.4877 14.853 9.45706 14.8767 9.43165 14.9053C9.32157 15.0291 9.30024 15.1976 9.36307 15.3379L10.0804 16.9396C10.1185 17.0247 10.2025 17.0753 10.2906 17.0753C10.3334 17.0753 10.3771 17.0634 10.417 17.0377C10.5128 16.9759 10.5435 16.8498 10.4971 16.746L10.0786 15.8115L20.7594 23.6971L19.7692 23.5453C19.636 23.5248 19.5124 23.622 19.5045 23.7588C19.4976 23.8779 19.5901 23.9804 19.7088 23.9986L20.7809 24.163L13.4476 27.11C13.3298 27.1573 13.2729 27.2906 13.3206 27.4076C13.3567 27.4966 13.4429 27.5506 13.5339 27.5506C13.5625 27.5506 13.5917 27.5452 13.62 27.5338L20.9196 24.6003L20.3537 25.3092C20.2749 25.4079 20.2827 25.5548 20.3802 25.6353C20.4233 25.6708 20.4753 25.6881 20.5271 25.6881C20.5949 25.6881 20.6619 25.6584 20.7074 25.6016L21.719 24.3343C21.7846 24.2521 21.814 24.147 21.8002 24.0429C21.7862 23.939 21.7307 23.8449 21.6459 23.7823Z" fill="black"/>
</g>
<defs>
<clipPath id="clip0_283_13914">
<rect width="29" height="30" fill="white"/>
</clipPath>
</defs>
</svg>
