<svg width="142" height="217" viewBox="0 0 142 217" fill="none" xmlns="http://www.w3.org/2000/svg">
<path fill-rule="evenodd" clip-rule="evenodd" d="M85.9418 23.7378C89.0939 21.586 91.6383 18.5956 92.3952 14.6837C94.5761 3.41231 78.3885 1.68298 73.8706 6.45616C69.3527 11.2293 65.9172 25.4871 69.5555 27.5314C71.0064 28.3467 74.5857 28.261 78.5033 27.1484L72.401 41.4438L84.917 44.7974L85.9418 23.7378Z" fill="#B28B67"/>
<path fill-rule="evenodd" clip-rule="evenodd" d="M81.5968 13.0998C79.3453 19.5861 77.1918 22.5538 75.1363 22.003C72.0528 21.1768 69.9565 18.5356 68.6035 18.1731C67.6172 17.9088 67.5097 19.1911 67.9204 20.2733C68.2592 21.1661 70.6926 22.5912 70.3818 23.7513C70.0709 24.9114 68.2361 23.4578 68.0518 24.1459C67.7468 25.284 66.8087 27.3261 68.8017 27.8601C70.8186 28.4005 76.7966 29.2215 78.5827 26.5201C79.7353 24.7767 81.212 20.9197 83.0128 14.9491C83.139 14.9675 83.2655 14.9934 83.3917 15.0273C85.1198 15.4903 86.1487 17.2542 85.6897 18.967C85.4568 19.8365 84.8851 20.5257 84.1527 20.933C84.6053 22.1398 85.1332 23.4154 85.7704 24.7563C89.8199 23.6151 94.0412 18.2292 92.1913 11.473C92.0142 8.35863 90.2868 6.25763 87.9533 4.87171C86.1361 3.47636 84.0395 2.81215 82.1119 2.84025C78.5202 2.19784 75.1 2.41895 74.0424 2.81112C73.1595 6.10637 73.5417 7.25667 79.0671 8.64484C80.2295 9.71482 80.9424 11.212 81.5968 13.0998Z" fill="#191847"/>
<path fill-rule="evenodd" clip-rule="evenodd" d="M78.8232 88.3799L52.3243 155.19L34.5514 211.673H27.5333L54.7042 88.3799L78.8232 88.3799Z" fill="#997659"/>
<path fill-rule="evenodd" clip-rule="evenodd" d="M84.1593 88.3799C84.4414 111.858 88.5566 143.466 89.2141 144.93C89.6524 145.906 104.783 158.313 134.607 182.151L129.774 187.304C94.5841 166.865 76.1752 155.283 74.5468 152.557C72.1042 148.468 64.152 110.841 57.7674 88.3799H84.1593Z" fill="#B28B67"/>
<path fill-rule="evenodd" clip-rule="evenodd" d="M135.286 180.421C136.91 180.994 138.028 181.539 138.641 182.053C139.387 182.679 140.371 183.716 141.594 185.165C140.868 186.031 134.343 193.806 122.02 208.492C119.507 207.417 118.719 206.159 119.655 204.719C120.591 203.279 121.357 202.073 121.953 201.101L126.218 186.203C126.3 185.917 126.599 185.751 126.885 185.833C126.89 185.834 126.895 185.836 126.9 185.837L129.175 186.559C130.754 185.823 131.86 185.077 132.495 184.321C133.01 183.707 133.474 182.651 133.885 181.153C134.044 180.577 134.638 180.239 135.213 180.398C135.238 180.404 135.262 180.412 135.286 180.421Z" fill="#E4E4E4"/>
<path fill-rule="evenodd" clip-rule="evenodd" d="M37.426 209.118C38.03 210.731 38.332 211.937 38.332 212.738C38.332 213.711 38.1698 215.132 37.8455 217C36.716 217 26.5657 217 7.39442 217C6.60311 214.384 7.0599 212.971 8.7648 212.763C10.4697 212.554 11.886 212.366 13.0137 212.198L27.167 205.888C27.4394 205.767 27.7586 205.889 27.88 206.162C27.882 206.166 27.884 206.171 27.886 206.176L28.7958 208.382C30.374 209.119 31.6566 209.487 32.6433 209.487C33.4451 209.487 34.5522 209.163 35.9649 208.516C36.507 208.267 37.1479 208.505 37.3964 209.047C37.4071 209.071 37.417 209.094 37.426 209.118Z" fill="#E4E4E4"/>
<path fill-rule="evenodd" clip-rule="evenodd" d="M61.0068 205.855L27.6389 202.248L52.3685 88.3799H82.2549L61.0068 205.855Z" fill="#69A1AC"/>
<path fill-rule="evenodd" clip-rule="evenodd" d="M127.706 173.838L105.819 199.645C82.7652 174.564 69.325 158.198 65.498 150.549C61.671 142.899 58.2307 122.176 55.1772 88.3799H88.8238C90.4918 118.112 91.6162 133.67 92.1969 135.054C92.7776 136.437 104.614 149.365 127.706 173.838Z" fill="#89C5CC"/>
<path fill-rule="evenodd" clip-rule="evenodd" d="M37.4948 75.992L18.3495 85.3943C13.5318 85.8183 9.41776 86.6774 6.00738 87.9715C5.1618 88.5039 4.04466 89.6873 7.10889 89.989C10.1731 90.2908 13.3829 90.7453 13.6191 91.8451C13.8553 92.9448 11.8093 93.8494 12.4085 95.3826C12.8079 96.4048 15.8721 94.5586 21.6009 89.8441L39.6178 85.8754L37.4948 75.992ZM102.537 87.9018L91.4188 85.9861C94.3934 109.234 96.0353 121.58 96.3443 123.025C97.0397 126.276 93.6214 130.437 92.0702 132.724C95.4117 134.978 96.0797 128.93 100.281 131.855C104.115 134.524 106.674 138.586 112.02 136.475C112.677 136.215 113.569 134.959 112.187 133.611C108.746 130.251 103.932 124.586 103.441 122.914C102.772 120.634 102.471 108.963 102.537 87.9018Z" fill="#B28B67"/>
<path fill-rule="evenodd" clip-rule="evenodd" d="M79.1424 35.9407L74.6832 34.3453C55.0391 46.001 43.0654 72.9358 19.5246 84.1719L23.4628 91.2668C60.525 93.1938 75.5746 60.4181 79.1424 35.9407Z" fill="#E87613"/>
<path fill-rule="evenodd" clip-rule="evenodd" d="M89.0476 96.9681C70.6129 93.7176 57.0527 91.3266 48.367 89.7951C46.5081 89.4673 47.3294 86.8581 47.8357 85.5577C53.6798 70.5496 68.7426 55.9167 72.6468 33.7746L84.7039 34.0127C91.6707 51.2568 91.655 70.9725 89.0476 96.9681Z" fill="#DDE3E9"/>
<path fill-rule="evenodd" clip-rule="evenodd" d="M96.6635 51.8642C98.4537 51.6772 100.004 50.7782 101.314 49.1672C106.96 42.2228 106.159 37.7098 101.821 35.508C97.4837 33.3062 92.89 35.4561 85.5874 34.1685C85.1902 34.0984 84.822 34.0591 84.4829 34.0504L80.7727 33.6112C63.966 67.2962 56.8779 90.4977 59.5083 103.216L91.5271 108.861C92.648 113.598 93.8103 117.621 95.014 120.932L103.739 122.471C109.218 96.1972 106.86 72.6617 96.6635 51.8642Z" fill="#FF9B21"/>
<path fill-rule="evenodd" clip-rule="evenodd" d="M87.7728 89.3775C85.2875 97.5839 82.5779 103.38 79.644 106.766L91.5264 108.861C90.2189 103.336 88.9677 96.8419 87.7728 89.3775Z" fill="black" fill-opacity="0.1"/>
</svg>
