<svg width="103" height="149" viewBox="0 0 103 149" fill="none" xmlns="http://www.w3.org/2000/svg">
<g filter="url(#filter0_d_298_283)">
<path fill-rule="evenodd" clip-rule="evenodd" d="M55.293 6.46367C57.5643 10.323 61.6532 19.4721 60.5123 21.3769L50.8227 23.9732C50.8171 23.9563 50.8115 23.9394 50.806 23.9226C47.108 24.4875 43.4989 22.191 42.5082 18.4936L40.6788 11.6662C39.6157 7.69869 41.9702 3.62063 45.9376 2.55755L46.6059 2.37849C50.1643 1.42501 53.8117 3.22073 55.293 6.46367Z" fill="#191847"/>
<path fill-rule="evenodd" clip-rule="evenodd" d="M45.9315 16.221C43.912 14.8423 42.2817 12.9263 41.7968 10.4199C40.3995 3.19831 50.7709 2.09032 53.6656 5.14852C56.5603 8.20673 58.7614 17.3418 56.4303 18.6516C55.5007 19.1739 53.2074 19.119 50.6974 18.4062L54.6072 27.5653L46.5881 29.714L45.9315 16.221Z" fill="#B28B67"/>
<path fill-rule="evenodd" clip-rule="evenodd" d="M47.7795 14.4427C49.203 18.2773 50.2586 22.8091 49.4433 24.1705L39.7536 26.7668C36.7225 17.6143 42.9049 19.8165 40.5594 11.063C40.8003 10.6608 41.0241 10.2667 41.2562 9.91628L41.1765 9.66172C41.9421 5.80756 43.6146 3.53489 46.1941 2.84372C50.0633 1.80697 51.7627 3.26418 53.2085 4.50058C53.1395 7.35336 50.227 8.55401 47.9874 10.9208C47.6032 10.751 47.1593 10.7064 46.7204 10.824C45.7054 11.096 45.1012 12.1319 45.3707 13.1379C45.6403 14.1438 46.6815 14.7389 47.6965 14.4669C47.7245 14.4594 47.7522 14.4513 47.7795 14.4427Z" fill="#191847"/>
<path fill-rule="evenodd" clip-rule="evenodd" d="M37.832 91.4397C46.1303 93.7518 53.2898 94.9078 59.3105 94.9078C65.3312 94.9078 70.9235 93.1276 76.0874 89.567C67.9668 87.1939 61.2791 86.0073 56.0244 86.0073C50.7696 86.0073 44.7055 87.8181 37.832 91.4397Z" fill="#1F28CF"/>
<path fill-rule="evenodd" clip-rule="evenodd" d="M66.4936 98.2403C66.4136 98.1205 66.346 97.9902 66.2924 97.849C65.1832 94.9269 47.4165 63.4039 45.6465 57.6406H65.6493C66.9951 62.0225 73.0522 89.5209 73.9046 95.0073C76.5942 103.661 82.1318 131.689 82.8388 133.631C83.5824 135.673 79.3981 137.801 78.283 135.29C76.5088 131.294 72.2814 120.238 70.3991 113.488C68.6344 107.159 67.1975 101.466 66.4936 98.2403Z" fill="#997659"/>
<path fill-rule="evenodd" clip-rule="evenodd" d="M50.1286 102.089C42.0059 104.134 12.2949 107.831 10.256 108.411C8.15863 109.007 6.31962 104.701 8.91211 103.768C13.0372 102.284 24.4037 98.8541 31.2952 97.4546C36.8383 96.3289 41.8965 95.4103 45.2924 94.8724C45.0047 85.37 43.6896 62.5659 44.5516 57.6406H62.2504C61.4238 62.3636 54.4362 96.8253 53.1375 100.275C52.7254 101.506 51.4956 102.051 50.1286 102.089Z" fill="#B28B67"/>
<path fill-rule="evenodd" clip-rule="evenodd" d="M9.07404 102.591C7.98947 102.389 7.19464 102.333 6.68955 102.422C6.07524 102.53 5.19687 102.79 4.05441 103.203C4.18007 103.915 5.30937 110.32 7.44232 122.417C9.18102 122.625 10.0213 122.179 9.96327 121.08C9.9052 119.982 9.86647 119.067 9.84707 118.337L12.2536 108.704C12.2999 108.519 12.1872 108.331 12.0019 108.285C11.9987 108.284 11.9955 108.283 11.9923 108.283L10.4986 107.954C9.85838 107.04 9.48336 106.272 9.37358 105.649C9.28438 105.143 9.3655 104.409 9.61694 103.445C9.71343 103.076 9.49195 102.698 9.12224 102.601C9.10631 102.597 9.09023 102.594 9.07404 102.591Z" fill="#E4E4E4"/>
<path fill-rule="evenodd" clip-rule="evenodd" d="M77.0131 134.999C76.6261 136.032 76.4326 136.805 76.4326 137.318C76.4326 137.941 76.5365 138.852 76.7444 140.048C77.468 140.048 83.9714 140.048 96.2545 140.048C96.7615 138.372 96.4689 137.467 95.3765 137.334C94.2842 137.2 93.3768 137.079 92.6543 136.972L83.5861 132.929C83.4116 132.851 83.2071 132.93 83.1293 133.104C83.128 133.107 83.1267 133.11 83.1255 133.113L82.5426 134.527C81.5313 134.999 80.7096 135.235 80.0774 135.235C79.5637 135.235 78.8544 135.027 77.9493 134.612C77.6019 134.453 77.1913 134.606 77.0321 134.953C77.0252 134.968 77.0189 134.983 77.0131 134.999Z" fill="#E4E4E4"/>
<path fill-rule="evenodd" clip-rule="evenodd" d="M44.6087 57.6407C52.408 55.4179 59.7874 55.4179 66.7472 57.6407C69.1686 68.6457 75.0522 73.0136 76.0868 89.886C64.3258 95.7072 49.7974 85.7343 37.6904 91.4112C34.2313 83.4707 39.0741 64.3478 44.6087 57.6407Z" fill="#2B44FF"/>
<path fill-rule="evenodd" clip-rule="evenodd" d="M63.061 34.8502L73.7489 26.3211C75.3055 23.6509 76.9246 21.5048 78.6064 19.8828C79.1468 19.5377 80.1407 19.2113 79.484 21.0638C78.8273 22.9163 78.2202 24.8941 78.7976 25.3273C79.375 25.7606 80.4587 24.8221 81.1903 25.582C81.6781 26.0887 79.7684 27.3616 75.4612 29.4009L68.2497 38.7438L63.061 34.8502ZM82.5385 37.0219L87.2318 33.2669C87.474 30.379 88.1004 28.8371 89.1108 28.6411C89.8259 28.1433 89.0848 31.8691 90.5074 31.3065C91.9301 30.7439 95.0625 27.4425 95.7787 27.8744C96.8382 28.5133 96.453 31.1168 95.7039 32.5102C94.3039 35.1144 92.9488 36.1595 89.4392 37.8339C87.6042 38.7095 85.7074 40.1502 83.7488 42.1563L82.5385 37.0219Z" fill="#997659"/>
<path fill-rule="evenodd" clip-rule="evenodd" d="M57.0498 34.43C61.1837 33.6562 66.5531 31.812 71.7897 27.0507L75.0094 31.7782C71.6525 36.509 66.5186 40.8149 61.4964 41.5564C57.5387 42.1408 54.6901 37.7554 57.0498 34.43Z" fill="#2026A2"/>
<path fill-rule="evenodd" clip-rule="evenodd" d="M64.0783 41.6827C68.6676 41.9985 75.8138 39.4117 85.5172 33.9222C89.0162 38.7543 90.8672 42.3126 91.0703 44.5973C83.0057 50.7776 75.7589 54.1769 69.5137 55.4182C70.3656 59.0847 70.5338 62.6867 69.5803 66.1732C67.6199 73.3409 48.2292 70.4421 42.2854 72.7336C36.2332 60.9543 42.7948 54.5766 41.3951 46.6035C39.8623 37.872 44.5375 23.192 45.574 23.0092L55.0262 21.3425C56.7234 27.918 60.644 34.8032 64.0783 41.6827Z" fill="#1F28CF"/>
</g>
<defs>
<filter id="filter0_d_298_283" x="0.0546875" y="2.12305" width="100.441" height="145.925" filterUnits="userSpaceOnUse" color-interpolation-filters="sRGB">
<feFlood flood-opacity="0" result="BackgroundImageFix"/>
<feColorMatrix in="SourceAlpha" type="matrix" values="0 0 0 0 0 0 0 0 0 0 0 0 0 0 0 0 0 0 127 0" result="hardAlpha"/>
<feOffset dy="4"/>
<feGaussianBlur stdDeviation="2"/>
<feComposite in2="hardAlpha" operator="out"/>
<feColorMatrix type="matrix" values="0 0 0 0 0 0 0 0 0 0 0 0 0 0 0 0 0 0 0.25 0"/>
<feBlend mode="normal" in2="BackgroundImageFix" result="effect1_dropShadow_298_283"/>
<feBlend mode="normal" in="SourceGraphic" in2="effect1_dropShadow_298_283" result="shape"/>
</filter>
</defs>
</svg>
