<svg width="19" height="24" viewBox="0 0 19 24" fill="none" xmlns="http://www.w3.org/2000/svg">
<g id="noun-bookmarks-2177803 1">
<g id="Group">
<g id="Group_2">
<g id="Group_3">
<path id="Vector" d="M12.8283 4.61626C12.8283 4.73626 12.8283 4.85439 12.8283 4.97439C12.8283 5.29689 12.8283 5.61939 12.8283 5.94376C12.8283 6.42376 12.8283 6.90376 12.8283 7.38376C12.8283 7.96876 12.8283 8.55564 12.8283 9.14064C12.8283 9.78189 12.8283 10.4231 12.8283 11.0644C12.8283 11.7094 12.8283 12.3525 12.8283 12.9975C12.8283 13.6013 12.8283 14.205 12.8283 14.8088C12.8283 15.3188 12.8283 15.8288 12.8283 16.3388C12.8283 16.7044 12.8283 17.07 12.8283 17.4338C12.8283 17.6081 12.8228 17.7825 12.8283 17.9569C12.8283 17.9644 12.8283 17.9719 12.8283 17.9794C13.0139 17.8706 13.2013 17.7638 13.3868 17.655C12.8135 17.3175 12.2401 16.98 11.6687 16.6425C10.7558 16.1044 9.84102 15.5663 8.92812 15.0281C8.71846 14.9044 8.50693 14.7806 8.29727 14.6569C8.18223 14.5894 8.0375 14.5894 7.92246 14.6569C7.34912 14.9944 6.77578 15.3319 6.2043 15.6694C5.29141 16.2075 4.37666 16.7456 3.46377 17.2838C3.2541 17.4075 3.04258 17.5313 2.83291 17.655C3.01846 17.7638 3.20586 17.8706 3.39141 17.9794C3.39141 17.6456 3.39141 17.3138 3.39141 16.98C3.39141 16.1494 3.39141 15.3169 3.39141 14.4863C3.39141 13.4081 3.39141 12.3281 3.39141 11.25C3.39141 10.1719 3.39141 9.09376 3.39141 8.01564C3.39141 7.19626 3.39141 6.37689 3.39141 5.55751C3.39141 5.19751 3.37285 4.83189 3.39883 4.47189C3.40254 4.41564 3.38027 4.56564 3.39883 4.48314C3.40439 4.45876 3.40811 4.43251 3.41367 4.40814C3.42295 4.36689 3.43408 4.32751 3.44893 4.28626C3.45449 4.27126 3.46377 4.22626 3.4749 4.21501C3.46934 4.23001 3.46377 4.24501 3.45635 4.25814C3.46377 4.24314 3.46934 4.22814 3.47676 4.21314C3.49902 4.16814 3.52314 4.12501 3.54912 4.08376C3.56025 4.06689 3.57139 4.05001 3.58437 4.03314C3.62334 3.97501 3.5751 4.02376 3.57881 4.04064C3.5751 4.02189 3.66416 3.94501 3.67715 3.93189C3.69014 3.91876 3.75137 3.84564 3.76807 3.84939C3.75508 3.85876 3.74395 3.86814 3.73096 3.87751C3.74395 3.86814 3.75693 3.85876 3.76992 3.84751C3.79033 3.83251 3.81074 3.81939 3.83115 3.80626C3.87383 3.78001 3.9165 3.75751 3.96104 3.73501C4.00186 3.71251 3.96103 3.71814 3.94062 3.74251C3.95176 3.72939 3.99443 3.72189 4.01113 3.71626C4.0501 3.70314 4.09092 3.69001 4.13174 3.68064C4.15586 3.67501 4.18184 3.67126 4.20596 3.66564C4.24678 3.65814 4.23936 3.66001 4.18369 3.66751C4.20039 3.66564 4.21709 3.66376 4.23564 3.66189C4.27646 3.65814 4.31728 3.65814 4.35811 3.65814C4.5585 3.65814 4.75703 3.65814 4.95742 3.65814C5.89258 3.65814 6.82588 3.65814 7.76103 3.65814C8.77598 3.65814 9.79092 3.65814 10.8059 3.65814C11.1064 3.65814 11.407 3.65814 11.7076 3.65814C11.7651 3.65814 11.8227 3.65814 11.8783 3.65814C11.8802 3.65814 11.8839 3.65814 11.8857 3.65814C11.9284 3.65814 11.9711 3.66189 12.0156 3.66376C12.1047 3.66939 11.9321 3.64501 12.0175 3.66376C12.0416 3.66939 12.0676 3.67314 12.0917 3.67876C12.1362 3.69001 12.1808 3.70314 12.2234 3.71814C12.2383 3.72376 12.2717 3.72939 12.281 3.74064C12.2661 3.73501 12.2513 3.72939 12.2383 3.72189C12.2531 3.72939 12.268 3.73501 12.2828 3.74251C12.3199 3.76126 12.3552 3.78189 12.3904 3.80251C12.4108 3.81564 12.4312 3.82876 12.4517 3.84376C12.4646 3.85314 12.4776 3.86251 12.4906 3.87376C12.4517 3.84189 12.4424 3.83626 12.4628 3.85314C12.4925 3.88689 12.5314 3.91314 12.5611 3.94501C12.5686 3.95251 12.6465 4.02376 12.6428 4.03689C12.6335 4.02376 12.6242 4.01251 12.6149 3.99939C12.6242 4.01251 12.6335 4.02564 12.6446 4.03876C12.6595 4.05939 12.6725 4.08001 12.6854 4.10064C12.7077 4.13626 12.7263 4.17189 12.7448 4.20939C12.7578 4.23376 12.7745 4.30501 12.7485 4.21126C12.7522 4.22626 12.7615 4.24314 12.7671 4.25814C12.7838 4.30501 12.7986 4.35376 12.8098 4.40251C12.8135 4.41939 12.8172 4.43626 12.8209 4.45314C12.8228 4.46064 12.8246 4.47001 12.8265 4.47751C12.8339 4.51876 12.832 4.51126 12.8246 4.45501C12.8395 4.48126 12.8283 4.58626 12.8283 4.61626C12.8302 4.81314 12.9972 5.00064 13.1994 4.99126C13.398 4.98189 13.5724 4.82626 13.5705 4.61626C13.5612 3.68439 12.8042 2.91751 11.882 2.91001C11.7243 2.90814 11.5685 2.91001 11.4107 2.91001C10.5034 2.91001 9.59609 2.91001 8.68877 2.91001C7.64228 2.91001 6.5958 2.91001 5.55117 2.91001C5.22461 2.91001 4.89805 2.91001 4.57148 2.91001C4.49912 2.91001 4.42861 2.91001 4.35625 2.91001C4.07793 2.91001 3.81074 2.97376 3.56211 3.09939C2.99062 3.38814 2.64736 4.00501 2.64551 4.64064C2.64551 4.78314 2.64551 4.92564 2.64551 5.06626C2.64551 5.77126 2.64551 6.47626 2.64551 7.17939C2.64551 8.21814 2.64551 9.25689 2.64551 10.2938C2.64551 11.4094 2.64551 12.5231 2.64551 13.6388C2.64551 14.5744 2.64551 15.5119 2.64551 16.4475C2.64551 16.935 2.64551 17.4206 2.64551 17.9081C2.64551 17.9306 2.64551 17.9513 2.64551 17.9738C2.64551 18.2588 2.96094 18.4406 3.204 18.2981C3.77734 17.9606 4.35068 17.6231 4.92217 17.2856C5.83506 16.7475 6.7498 16.2094 7.6627 15.6713C7.87236 15.5475 8.08389 15.4238 8.29355 15.3C8.16924 15.3 8.04307 15.3 7.91875 15.3C8.49209 15.6375 9.06543 15.975 9.63691 16.3125C10.5498 16.8506 11.4646 17.3888 12.3774 17.9269C12.5871 18.0506 12.7986 18.1744 13.0083 18.2981C13.2514 18.4406 13.5668 18.2588 13.5668 17.9738C13.5668 17.8538 13.5668 17.7356 13.5668 17.6156C13.5668 17.2931 13.5668 16.9706 13.5668 16.6463C13.5668 16.1663 13.5668 15.6863 13.5668 15.2063C13.5668 14.6213 13.5668 14.0344 13.5668 13.4494C13.5668 12.8081 13.5668 12.1669 13.5668 11.5256C13.5668 10.8806 13.5668 10.2375 13.5668 9.59251C13.5668 8.98876 13.5668 8.38501 13.5668 7.78126C13.5668 7.27126 13.5668 6.76126 13.5668 6.25126C13.5668 5.88564 13.5668 5.52001 13.5668 5.15626C13.5668 4.98189 13.5705 4.80751 13.5668 4.63314C13.5668 4.62564 13.5668 4.61814 13.5668 4.61064C13.5668 4.41376 13.3961 4.22626 13.1957 4.23564C12.999 4.25064 12.8283 4.40626 12.8283 4.61626Z" fill="#2A2A2A"/>
</g>
</g>
<g id="Group_4">
<g id="Group_5">
<path id="Vector_2" d="M15.6112 2.55361C15.6112 2.67361 15.6112 2.79174 15.6112 2.91174C15.6112 3.23424 15.6112 3.55674 15.6112 3.88111C15.6112 4.36111 15.6112 4.84111 15.6112 5.32111C15.6112 5.90611 15.6112 6.49299 15.6112 7.07799C15.6112 7.71924 15.6112 8.36049 15.6112 9.00174C15.6112 9.64674 15.6112 10.2899 15.6112 10.9349C15.6112 11.5386 15.6112 12.1424 15.6112 12.7461C15.6112 13.2561 15.6112 13.7661 15.6112 14.2761C15.6112 14.6417 15.6112 15.0074 15.6112 15.3711C15.6112 15.5455 15.6057 15.7199 15.6112 15.8942C15.6112 15.9017 15.6112 15.9092 15.6112 15.9167C15.7968 15.808 15.9842 15.7011 16.1697 15.5924C15.8562 15.4067 15.5407 15.2211 15.2272 15.0374C14.7299 14.743 14.2308 14.4505 13.7335 14.1561C13.6185 14.0886 13.5034 14.0211 13.3884 13.9517C13.4496 14.0605 13.5108 14.1674 13.5721 14.2761C13.5721 14.0267 13.5721 13.7774 13.5721 13.528C13.5721 12.9055 13.5721 12.2811 13.5721 11.6586C13.5721 10.8599 13.5721 10.0592 13.5721 9.26049C13.5721 8.47299 13.5721 7.68549 13.5721 6.89799C13.5721 6.32049 13.5721 5.74486 13.5721 5.16736C13.5721 4.79611 13.6055 4.39299 13.4719 4.04236C13.2251 3.39736 12.6499 2.95486 11.9615 2.91361C11.8446 2.90611 11.7259 2.91174 11.609 2.91174C10.9948 2.91174 10.3788 2.91174 9.76466 2.91174C8.97237 2.91174 8.17823 2.91174 7.38595 2.91174C6.88126 2.91174 6.37843 2.91174 5.87374 2.91174C5.84962 2.91174 5.82364 2.91174 5.79952 2.91174C5.92384 3.03736 6.0463 3.16111 6.17062 3.28674C6.17062 3.09924 6.17062 2.91361 6.17062 2.72611C6.17062 2.65674 6.16876 2.58549 6.17062 2.51611C6.17062 2.49361 6.17247 2.47299 6.17433 2.45049C6.17618 2.43736 6.19474 2.36424 6.17618 2.42236C6.15763 2.48424 6.17989 2.40549 6.18175 2.39611C6.18546 2.37924 6.18917 2.36236 6.19288 2.34549C6.20216 2.30424 6.21515 2.26486 6.22814 2.22361C6.23556 2.20299 6.24298 2.18424 6.2504 2.16549C6.26153 2.13924 6.25597 2.15049 6.23741 2.19736C6.24483 2.18236 6.2504 2.16736 6.25782 2.15236C6.29122 2.08486 6.33019 2.02299 6.37286 1.96111C6.4211 1.88986 6.3172 2.02111 6.37472 1.95924C6.38585 1.94799 6.39513 1.93486 6.40626 1.92174C6.43966 1.88611 6.47491 1.85049 6.51017 1.81861C6.51573 1.81299 6.54357 1.78674 6.54728 1.78674C6.53429 1.79611 6.52315 1.80549 6.51017 1.81486C6.52315 1.80549 6.53614 1.79611 6.54913 1.78486C6.57882 1.76424 6.61036 1.74361 6.6419 1.72486C6.67345 1.70611 6.70685 1.68924 6.74024 1.67236C6.81632 1.63111 6.66232 1.69861 6.7421 1.67049C6.76622 1.66299 6.78849 1.65361 6.81261 1.64611C6.85157 1.63299 6.89239 1.62174 6.93321 1.61236C6.94991 1.60861 6.96661 1.60674 6.98331 1.60299C7.06681 1.58611 6.91651 1.60861 6.97218 1.60299C7.02042 1.59924 7.06681 1.59549 7.11505 1.59549C7.12618 1.59549 7.13917 1.59549 7.1503 1.59549C7.69581 1.59549 8.24132 1.59549 8.78683 1.59549C9.74239 1.59549 10.698 1.59549 11.6535 1.59549C12.4644 1.59549 13.2752 1.59549 14.0879 1.59549C14.2697 1.59549 14.4516 1.59549 14.6334 1.59549C14.6445 1.59549 14.6538 1.59549 14.665 1.59549C14.6835 1.59549 14.7002 1.59549 14.7169 1.59736C14.7336 1.59736 14.7522 1.59924 14.7689 1.60111C14.7818 1.60299 14.8542 1.61986 14.7967 1.60299C14.7355 1.58424 14.8134 1.60674 14.8227 1.60861C14.8394 1.61236 14.8561 1.61611 14.8728 1.61986C14.921 1.63111 14.9692 1.64611 15.0156 1.66299C15.0323 1.66861 15.0824 1.70611 15.0398 1.67236C14.9952 1.63674 15.0509 1.67799 15.062 1.68549C15.0991 1.70424 15.1344 1.72486 15.1696 1.74549C15.2012 1.76424 15.229 1.78861 15.2606 1.80736C15.3051 1.83549 15.1938 1.74736 15.2531 1.80174C15.2717 1.81861 15.2902 1.83361 15.3069 1.85049C15.3366 1.87861 15.3645 1.90861 15.3923 1.93861C15.3904 1.93674 15.4238 1.97236 15.4238 1.97611C15.4146 1.96299 15.4053 1.95174 15.396 1.93861C15.4053 1.95174 15.4146 1.96486 15.4257 1.97799C15.4442 2.00424 15.563 2.16736 15.5482 2.19361C15.5426 2.17861 15.537 2.16361 15.5296 2.15049C15.5352 2.16549 15.5426 2.18236 15.5482 2.19736C15.5537 2.21236 15.5593 2.22924 15.5649 2.24424C15.5778 2.28361 15.589 2.32486 15.5983 2.36611C15.602 2.38299 15.6038 2.39986 15.6075 2.41674C15.6261 2.50299 15.602 2.33049 15.6075 2.41861C15.6075 2.46549 15.6112 2.50861 15.6112 2.55361C15.6131 2.75049 15.7801 2.93799 15.9823 2.92861C16.1809 2.91924 16.3553 2.76361 16.3534 2.55361C16.3497 2.12049 16.1883 1.71174 15.9007 1.39299C15.6205 1.08174 15.2309 0.901739 14.8208 0.856739C14.6612 0.839864 14.4961 0.847364 14.3365 0.847364C13.5739 0.847364 12.8132 0.847364 12.0506 0.847364C11.0542 0.847364 10.0578 0.847364 9.06329 0.847364C8.44171 0.847364 7.82198 0.847364 7.2004 0.847364C6.71798 0.847364 6.25782 1.00299 5.91456 1.35736C5.62325 1.65736 5.45441 2.05674 5.43028 2.47486C5.41915 2.67924 5.42843 2.88549 5.42843 3.08986C5.42843 3.15549 5.42843 3.21924 5.42843 3.28486C5.42843 3.48736 5.59913 3.65986 5.79952 3.65986C6.28751 3.65986 6.7755 3.65986 7.26163 3.65986C8.19679 3.65986 9.1338 3.65986 10.069 3.65986C10.6627 3.65986 11.2565 3.65986 11.8484 3.65986C11.8595 3.65986 11.8706 3.65986 11.8799 3.65986C11.9059 3.65986 11.9318 3.65986 11.9578 3.66174C11.9801 3.66361 12.0005 3.66549 12.0228 3.66736C12.0784 3.67111 11.9281 3.64861 12.0116 3.66736C12.0933 3.68424 12.1731 3.70674 12.2528 3.73486C12.3289 3.76299 12.2009 3.70299 12.2436 3.73111C12.2603 3.74236 12.2807 3.74986 12.2992 3.75924C12.3326 3.77611 12.3642 3.79486 12.3957 3.81549C12.4198 3.83049 12.4718 3.85299 12.4866 3.87924C12.4736 3.86986 12.4625 3.86049 12.4495 3.85111C12.4588 3.85861 12.4681 3.86611 12.4774 3.87549C12.4978 3.89611 12.52 3.91299 12.5404 3.93361C12.5646 3.95611 12.5868 3.98049 12.6072 4.00486C12.6128 4.01049 12.6184 4.01799 12.6239 4.02361C12.6499 4.05549 12.6443 4.04799 12.6109 4.00486C12.6184 4.00861 12.6369 4.03861 12.6406 4.04424C12.6592 4.07049 12.7779 4.23361 12.7631 4.25986C12.7575 4.24486 12.752 4.22986 12.7445 4.21674C12.7501 4.23174 12.7575 4.24861 12.7631 4.26361C12.7687 4.27861 12.7742 4.29549 12.7798 4.31049C12.7928 4.34986 12.8039 4.39111 12.8132 4.43236C12.8169 4.44924 12.8188 4.46611 12.8225 4.48299C12.8392 4.56736 12.8169 4.41549 12.8225 4.47174C12.8262 4.52049 12.8299 4.56736 12.8299 4.61611C12.8299 4.62174 12.8299 4.62736 12.8299 4.63486C12.8299 4.68174 12.8299 4.73049 12.8299 4.77736C12.8299 5.33611 12.8299 5.89299 12.8299 6.45174C12.8299 7.36299 12.8299 8.27424 12.8299 9.18549C12.8299 10.123 12.8299 11.0605 12.8299 11.998C12.8299 12.6449 12.8299 13.2917 12.8299 13.9386C12.8299 14.0511 12.8262 14.1636 12.8299 14.2742C12.8373 14.4692 12.9524 14.5649 13.0971 14.6511C13.2177 14.7224 13.3383 14.7936 13.457 14.863C14.1844 15.2905 14.9099 15.7199 15.6372 16.1474C15.691 16.1792 15.743 16.2092 15.7968 16.2411C16.0399 16.3836 16.3553 16.2017 16.3553 15.9167C16.3553 15.7967 16.3553 15.6786 16.3553 15.5586C16.3553 15.2361 16.3553 14.9136 16.3553 14.5892C16.3553 14.1092 16.3553 13.6292 16.3553 13.1492C16.3553 12.5642 16.3553 11.9774 16.3553 11.3924C16.3553 10.7511 16.3553 10.1099 16.3553 9.46861C16.3553 8.82361 16.3553 8.18049 16.3553 7.53549C16.3553 6.93174 16.3553 6.32799 16.3553 5.72424C16.3553 5.21424 16.3553 4.70424 16.3553 4.19424C16.3553 3.82861 16.3553 3.46299 16.3553 3.09924C16.3553 2.92486 16.359 2.75049 16.3553 2.57611C16.3553 2.56861 16.3553 2.56111 16.3553 2.55361C16.3553 2.35674 16.1846 2.16924 15.9842 2.17861C15.7819 2.18799 15.6112 2.34361 15.6112 2.55361Z" fill="#2A2A2A"/>
</g>
</g>
</g>
</g>
</svg>
