<svg width="17" height="21" viewBox="0 0 17 21" fill="none" xmlns="http://www.w3.org/2000/svg">
<g id="noun-notification-6194998 1">
<path id="Vector" d="M11.3683 12.2614V9.50288C12.5243 9.38024 13.4287 8.41088 13.4287 7.23656C13.4287 5.97992 12.3934 4.9568 11.1218 4.9568C10.8362 4.9568 10.5625 5.01056 10.3092 5.10632C9.7397 4.43936 9.0019 3.96224 8.1808 3.72032C8.2199 3.59432 8.242 3.46328 8.242 3.32888C8.242 2.5964 7.6385 2 6.8973 2C6.1561 2 5.5526 2.5964 5.5526 3.32888C5.5526 3.46328 5.5747 3.59432 5.6138 3.72032C3.771 4.26632 2.4246 5.9564 2.4246 7.95392V12.2631C1.6222 12.369 1 13.0477 1 13.8692C1 14.763 1.7361 15.4904 2.6405 15.4904H5.0188C5.1412 16.4077 5.9351 17.1183 6.8956 17.1183C7.8561 17.1183 8.65 16.4077 8.7724 15.4904H11.1507C12.0551 15.4904 12.7912 14.763 12.7912 13.8692C12.7929 13.046 12.1707 12.3673 11.3683 12.2614ZM12.934 7.23656C12.934 8.2244 12.1214 9.02912 11.1201 9.02912C10.1205 9.02912 9.3062 8.22608 9.3062 7.23656C9.3062 6.24872 10.1188 5.444 11.1201 5.444C12.1214 5.444 12.934 6.24872 12.934 7.23656ZM6.0439 3.3272C6.0439 2.86352 6.4264 2.48552 6.8956 2.48552C7.3648 2.48552 7.7473 2.86352 7.7473 3.3272C7.7473 3.42296 7.7286 3.51536 7.698 3.6044C7.4362 3.55736 7.1676 3.53216 6.8956 3.53216C6.6219 3.53216 6.3533 3.55736 6.0932 3.6044C6.0626 3.51704 6.0439 3.42296 6.0439 3.3272ZM6.8956 4.02104C8.0346 4.02104 9.0971 4.49648 9.8536 5.33312C9.228 5.74136 8.8132 6.44192 8.8132 7.23656C8.8132 8.41088 9.7176 9.38024 10.8736 9.50288V12.2463H2.9176V7.95224C2.9176 5.78504 4.7026 4.02104 6.8956 4.02104ZM6.8956 16.6311C6.2071 16.6311 5.6342 16.1372 5.5169 15.4904H8.2726C8.157 16.1372 7.5841 16.6311 6.8956 16.6311ZM11.1507 15.0015H2.6405C2.0081 15.0015 1.493 14.4925 1.493 13.8675C1.493 13.2426 2.0081 12.7335 2.6405 12.7335H11.1507C11.7831 12.7335 12.2982 13.2426 12.2982 13.8675C12.2982 14.4925 11.7831 15.0015 11.1507 15.0015Z" fill="#2A2A2A"/>
</g>
</svg>
