<svg width="38" height="25" viewBox="0 0 38 25" fill="none" xmlns="http://www.w3.org/2000/svg">
<g id="noun-reviews-5310186">
<g id="Group">
<g id="Group_2">
<g id="Group_3">
<g id="Group_4">
<path id="Vector" fill-rule="evenodd" clip-rule="evenodd" d="M13.6702 19.6744L7.91173 19.6344C7.77895 19.6334 7.67194 19.5254 7.67286 19.3932C7.68934 17.0251 9.63376 15.1161 12.0124 15.1326C13.7624 15.1448 15.2631 16.196 15.9274 17.6938C16.5816 17.3988 17.3087 17.2367 18.0736 17.242C18.8385 17.2473 19.5633 17.4195 20.2133 17.7237C20.8984 16.2353 22.4133 15.205 24.1635 15.2172C26.5419 15.2338 28.4598 17.1697 28.4434 19.5378C28.4424 19.67 28.3339 19.7765 28.2012 19.7756L22.4427 19.7355C22.9061 20.5091 23.17 21.4143 23.1632 22.3801C23.1623 22.5123 23.0538 22.6188 22.921 22.6179L13.1516 22.5499C13.0188 22.5489 12.9118 22.4409 12.9127 22.3087C12.9194 21.3429 13.1958 20.4415 13.6702 19.6744ZM20.6399 17.9467C21.2137 18.2841 21.7155 18.7294 22.1174 19.2543L27.9565 19.2949C27.846 17.3016 26.1925 15.7103 24.1602 15.6961C22.5959 15.6853 21.2431 16.6115 20.6399 17.9467ZM15.4977 17.9109C14.9129 16.5674 13.5731 15.6225 12.0091 15.6116C9.9768 15.5974 8.30128 17.1656 8.16306 19.1572L14.0021 19.1978C14.4113 18.6786 14.9193 18.2403 15.4977 17.9109ZM13.4017 22.0726L22.6778 22.1372C22.5695 19.6957 20.5526 17.7382 18.0702 17.721C15.5877 17.7037 13.544 19.6328 13.4017 22.0726ZM18.1231 10.1219C19.8127 10.1336 21.1747 11.5089 21.163 13.1907C21.1513 14.8727 19.7703 16.2288 18.0807 16.2171C16.3912 16.2053 15.0291 14.8301 15.0408 13.1481C15.0525 11.4663 16.4336 10.1101 18.1231 10.1219ZM18.1198 10.6008C16.6958 10.5909 15.5318 11.7337 15.5219 13.1514C15.512 14.5691 16.6601 15.7282 18.084 15.7382C19.508 15.7481 20.6721 14.605 20.6819 13.1873C20.6918 11.7697 19.5438 10.6107 18.1198 10.6008ZM24.2048 9.28578C25.6343 9.29573 26.7868 10.4592 26.7769 11.8827C26.767 13.3058 25.5984 14.4532 24.1689 14.4432C22.7391 14.4333 21.5866 13.2698 21.5965 11.8466C21.6064 10.4232 22.775 9.27583 24.2048 9.28578ZM24.2014 9.76472C23.0372 9.75662 22.0856 10.6909 22.0775 11.8499C22.0695 13.0087 23.008 13.9562 24.1722 13.9643C25.3362 13.9724 26.2878 13.0381 26.2959 11.8793C26.3039 10.7203 25.3654 9.77282 24.2014 9.76472ZM12.0537 9.20122C13.4832 9.21117 14.636 10.3747 14.6261 11.7981C14.6162 13.2213 13.4474 14.3686 12.0178 14.3587C10.5883 14.3487 9.43552 13.1852 9.44542 11.762C9.45533 10.3386 10.6242 9.19127 12.0537 9.20122ZM12.0504 9.68016C10.8864 9.67206 9.93456 10.6064 9.9265 11.7654C9.91843 12.9242 10.8572 13.8716 12.0212 13.8797C13.1854 13.8878 14.137 12.9535 14.1451 11.7947C14.1531 10.6357 13.2146 9.68826 12.0504 9.68016ZM18.4078 2.09286L18.9139 3.68103L20.5876 3.69267C20.6917 3.6934 20.7836 3.76085 20.8152 3.85974C20.8467 3.95862 20.8106 4.06638 20.7257 4.12685L19.3652 5.09686L19.8713 6.68504C19.9026 6.78392 19.8668 6.89167 19.7819 6.95215C19.6973 7.01263 19.583 7.01183 19.4993 6.95018L18.1521 5.96133L16.7913 6.93134C16.7064 6.99181 16.5924 6.99102 16.5084 6.92937C16.4246 6.86772 16.39 6.75948 16.4229 6.66104L16.9511 5.08006L15.604 4.09121C15.5202 4.02956 15.4856 3.92131 15.5185 3.82288C15.5514 3.72444 15.6443 3.65827 15.7484 3.659L17.4221 3.67064L17.9503 2.08967C17.9832 1.99124 18.076 1.92506 18.1802 1.92579C18.2843 1.92651 18.3762 1.99397 18.4078 2.09286ZM18.1731 2.94018L17.8233 3.98692C17.7904 4.08535 17.6975 4.15152 17.5934 4.1508L16.4855 4.14309L17.3772 4.79781C17.4612 4.85922 17.4958 4.96771 17.4629 5.06614L17.1131 6.11287L18.0141 5.47063C18.0989 5.41016 18.2129 5.41095 18.2969 5.4726L19.1887 6.12732L18.8537 5.07582C18.8221 4.97694 18.8582 4.86894 18.9429 4.8087L19.8439 4.16646L18.7357 4.15875C18.6315 4.15802 18.5396 4.09057 18.5081 3.99168L18.1731 2.94018ZM24.5531 2.13562L25.0592 3.72379L26.7328 3.73544C26.837 3.73616 26.9289 3.80362 26.9604 3.9025C26.992 4.00139 26.9559 4.10914 26.8713 4.16962L25.5105 5.13963L26.0166 6.7278C26.0481 6.82669 26.012 6.93444 25.9272 6.99492C25.8426 7.05539 25.7283 7.0546 25.6445 6.99295L24.2974 6.0041L22.9366 6.9741C22.8517 7.03458 22.7377 7.03379 22.6537 6.97213C22.5699 6.91048 22.5353 6.80224 22.5682 6.7038L23.0964 5.12283L21.7492 4.13398C21.6655 4.07233 21.6309 3.96408 21.6638 3.86564C21.6967 3.76721 21.7895 3.70104 21.8937 3.70176L23.5674 3.71341L24.0955 2.13244C24.1285 2.034 24.2213 1.96783 24.3254 1.96856C24.4296 1.96928 24.5215 2.03674 24.5531 2.13562ZM24.3184 2.98295L23.9686 4.02968C23.9356 4.12812 23.843 4.19429 23.7387 4.19357L22.6307 4.18585L23.5227 4.84058C23.6065 4.90199 23.6411 5.01047 23.6082 5.10891L23.2583 6.15564L24.1593 5.5134C24.2442 5.45292 24.3582 5.45372 24.4422 5.51537L25.3339 6.17009L24.999 5.11859C24.9674 5.0197 25.0035 4.91171 25.0881 4.85147L25.9891 4.20923L24.881 4.20151C24.7768 4.20079 24.6849 4.13333 24.6534 4.03445L24.3184 2.98295ZM12.2016 2.04967L12.7078 3.63784L14.3814 3.64948C14.4856 3.65021 14.5775 3.71766 14.609 3.81655C14.6406 3.91543 14.6045 4.02319 14.5199 4.08367L13.159 5.05367L13.6652 6.64185C13.6967 6.74073 13.6606 6.84848 13.5758 6.90896C13.4911 6.96944 13.3769 6.96864 13.2931 6.90699L11.9459 5.91814L10.5851 6.88815C10.5005 6.94863 10.3863 6.94783 10.3023 6.88618C10.2185 6.82453 10.1839 6.71629 10.2168 6.61785L10.745 5.03687L9.39783 4.04802C9.31407 3.98637 9.27945 3.87812 9.31237 3.77969C9.34529 3.68125 9.43813 3.61508 9.54228 3.61581L11.216 3.62745L11.7441 2.04648C11.777 1.94805 11.8699 1.88187 11.974 1.8826C12.0782 1.88332 12.1701 1.95078 12.2016 2.04967ZM11.967 2.89699L11.6172 3.94373C11.5845 4.04216 11.4916 4.10834 11.3872 4.10761L10.2793 4.0999L11.1713 4.75462C11.2551 4.81603 11.2897 4.92452 11.2567 5.02295L10.9069 6.06968L11.8079 5.42745C11.8928 5.36697 12.0068 5.36776 12.0908 5.42941L12.9828 6.08413L12.6475 5.03263C12.616 4.93375 12.6521 4.82575 12.7367 4.76551L13.6377 4.12327L12.5298 4.11556C12.4254 4.11483 12.3335 4.04738 12.302 3.94849L11.967 2.89699Z" fill="#2A2A2A"/>
</g>
</g>
</g>
</g>
</g>
</svg>
