<svg width="27" height="30" viewBox="0 0 27 30" fill="none" xmlns="http://www.w3.org/2000/svg">
<g id="noun-community-2284581 1">
<path id="Vector" d="M13.5001 8.65776C13.4436 8.65459 13.3894 8.63359 13.3454 8.59771C13.3013 8.56184 13.2696 8.51291 13.2547 8.45787C13.2397 8.40282 13.2424 8.34443 13.2622 8.29097C13.282 8.23752 13.318 8.1917 13.3651 8.16L13.8349 7.888L17.2801 5.86704C17.7115 5.61829 18.1936 5.47221 18.6895 5.44L19.6804 5.38016L20.9737 4.624C21.0045 4.60432 21.0388 4.5911 21.0748 4.58515C21.1107 4.5792 21.1475 4.58063 21.1828 4.58935C21.2182 4.59808 21.2514 4.61393 21.2806 4.63593C21.3097 4.65794 21.3341 4.68566 21.3523 4.71742C21.3706 4.74918 21.3822 4.78433 21.3866 4.82074C21.391 4.85716 21.388 4.8941 21.3779 4.92933C21.3678 4.96456 21.3506 4.99736 21.3276 5.02575C21.3045 5.05415 21.276 5.07755 21.2437 5.09456L19.8937 5.88064C19.8576 5.90213 19.8168 5.91428 19.7749 5.916L18.7219 5.98128C18.3092 6.00685 17.908 6.12884 17.5501 6.3376L13.6351 8.6224C13.594 8.64589 13.5474 8.65809 13.5001 8.65776Z" fill="#2A2A2A"/>
<path id="Vector_2" d="M13.5002 12.2864C13.4285 12.2864 13.3599 12.2578 13.3092 12.2068C13.2586 12.1557 13.2302 12.0866 13.2302 12.0144C13.2302 11.8781 13.1764 11.7473 13.0807 11.6509C12.985 11.5545 12.8552 11.5003 12.7199 11.5003C12.6343 11.5007 12.5503 11.5242 12.4769 11.5683C12.4347 11.5947 12.3861 11.6088 12.3365 11.6091C12.2648 11.6091 12.1962 11.5805 12.1455 11.5295C12.0949 11.4785 12.0665 11.4093 12.0665 11.3371C12.0647 11.1508 12.1123 10.9674 12.2044 10.8058C12.2964 10.6442 12.4296 10.5102 12.5903 10.4178L14.9312 9.05778C14.9935 9.02171 15.0674 9.01205 15.1368 9.03093C15.2062 9.0498 15.2653 9.09566 15.3011 9.15842C15.3369 9.22118 15.3464 9.2957 15.3277 9.36559C15.309 9.43547 15.2635 9.49499 15.2012 9.53106L12.8603 10.8911C12.8265 10.909 12.7955 10.9319 12.7685 10.9591C12.9072 10.9653 13.0434 10.9993 13.169 11.0591C13.2946 11.1189 13.4072 11.2032 13.5002 11.3072C13.5983 11.1966 13.7186 11.1082 13.8531 11.0478C13.9875 10.9873 14.1332 10.9561 14.2805 10.9563C14.4463 10.9559 14.6096 10.997 14.7557 11.076C14.8088 11.0941 14.8551 11.1285 14.888 11.1743C14.9209 11.2201 14.9388 11.2751 14.9393 11.3317C14.9393 11.4038 14.9108 11.473 14.8602 11.524C14.8095 11.575 14.7409 11.6037 14.6693 11.6037C14.6178 11.6044 14.5672 11.5902 14.5235 11.5629C14.45 11.5187 14.366 11.4952 14.2805 11.4949C14.213 11.4949 14.1462 11.5084 14.0839 11.5345C14.0216 11.5607 13.9652 11.5991 13.9177 11.6474C13.8702 11.6957 13.8328 11.753 13.8074 11.816C13.7821 11.879 13.7694 11.9465 13.7702 12.0144C13.7702 12.0866 13.7417 12.1557 13.6911 12.2068C13.6404 12.2578 13.5718 12.2864 13.5002 12.2864Z" fill="#2A2A2A"/>
<path id="Vector_3" d="M15.0609 9.56607C15.0012 9.56649 14.9429 9.54691 14.8954 9.5104C14.8478 9.47389 14.8137 9.42252 14.7982 9.36433C14.7828 9.30615 14.7869 9.24445 14.8101 9.18891C14.8332 9.13336 14.8739 9.08712 14.9259 9.05743L15.5388 8.70383C15.5695 8.68573 15.6034 8.67391 15.6386 8.66904C15.6738 8.66416 15.7096 8.66634 15.744 8.67543C15.7783 8.68453 15.8106 8.70037 15.8389 8.72205C15.8671 8.74372 15.8909 8.77081 15.9087 8.80175C15.9266 8.83279 15.9382 8.86709 15.9428 8.90266C15.9475 8.93823 15.9451 8.97438 15.9358 9.00901C15.9265 9.04365 15.9105 9.07609 15.8887 9.10448C15.8669 9.13286 15.8398 9.15662 15.8088 9.17439L15.1959 9.51983C15.1563 9.54806 15.1094 9.56412 15.0609 9.56607Z" fill="#2A2A2A"/>
<path id="Vector_4" d="M15.231 11.7993C15.2008 11.7998 15.1707 11.7952 15.1419 11.7857L14.5803 11.5899C14.5308 11.5731 14.4872 11.5422 14.4548 11.5009C14.4224 11.4596 14.4025 11.4098 14.3977 11.3574C14.3928 11.305 14.4031 11.2523 14.4274 11.2057C14.4517 11.1591 14.4889 11.1206 14.5344 11.0948L16.3191 10.0639C16.3499 10.0443 16.3842 10.031 16.4202 10.0251C16.4561 10.0191 16.4929 10.0206 16.5282 10.0293C16.5636 10.038 16.5968 10.0539 16.626 10.0759C16.6551 10.0979 16.6795 10.1256 16.6977 10.1574C16.716 10.1891 16.7276 10.2243 16.732 10.2607C16.7364 10.2971 16.7334 10.334 16.7233 10.3693C16.7132 10.4045 16.696 10.4373 16.673 10.4657C16.6499 10.4941 16.6214 10.5175 16.5891 10.5345L15.3174 11.2743C15.3769 11.2961 15.4269 11.3381 15.4587 11.3932C15.4905 11.4483 15.5022 11.5128 15.4915 11.5756C15.4809 11.6385 15.4488 11.6955 15.4007 11.7369C15.3526 11.7783 15.2916 11.8013 15.2283 11.802L15.231 11.7993Z" fill="#2A2A2A"/>
<path id="Vector_5" d="M16.6186 14.0976C16.547 14.0976 16.4783 14.0689 16.4277 14.0179C16.3771 13.9669 16.3486 13.8977 16.3486 13.8256V12.0141C16.3489 11.9666 16.3615 11.92 16.3852 11.879C16.4089 11.838 16.4428 11.8039 16.4836 11.7802L17.0992 11.4238C17.1609 11.3882 17.2341 11.3784 17.3028 11.3968C17.3716 11.4151 17.4304 11.46 17.4664 11.5218C17.4844 11.5526 17.4961 11.5868 17.501 11.6223C17.5058 11.6577 17.5036 11.6938 17.4946 11.7284C17.4856 11.763 17.4699 11.7955 17.4483 11.824C17.4268 11.8525 17.3999 11.8764 17.3692 11.8944L16.8886 12.1664V13.355L17.5879 12.9525C17.6187 12.9328 17.653 12.9196 17.689 12.9136C17.7249 12.9077 17.7616 12.9091 17.797 12.9178C17.8324 12.9266 17.8656 12.9424 17.8948 12.9644C17.9239 12.9864 17.9483 13.0141 17.9665 13.0459C17.9848 13.0777 17.9964 13.1128 18.0008 13.1492C18.0052 13.1856 18.0022 13.2226 17.9921 13.2578C17.9819 13.293 17.9648 13.3258 17.9418 13.3542C17.9187 13.3826 17.8902 13.406 17.8579 13.423L16.7536 14.0622C16.7125 14.0857 16.6659 14.0979 16.6186 14.0976Z" fill="#2A2A2A"/>
<path id="Vector_6" d="M18.1517 14.9027C18.0607 14.9028 17.9701 14.8919 17.8817 14.87C17.7473 14.8348 17.6211 14.7729 17.5108 14.6879C17.4004 14.6029 17.3081 14.4965 17.2391 14.375C17.1449 14.2155 17.0963 14.0329 17.0987 13.8473C17.0974 13.6718 17.1397 13.4987 17.2218 13.3438C17.3038 13.189 17.423 13.0572 17.5685 12.9606L17.5928 12.9443L17.6198 12.928L18.473 12.4329C18.5347 12.3972 18.6078 12.3875 18.6766 12.4058C18.7454 12.4242 18.8041 12.4691 18.8402 12.5308C18.8582 12.5617 18.8699 12.5959 18.8748 12.6313C18.8796 12.6668 18.8774 12.7029 18.8684 12.7375C18.8594 12.7721 18.8436 12.8046 18.8221 12.8331C18.8006 12.8616 18.7737 12.8855 18.743 12.9035L17.9033 13.3904L17.8601 13.4176C17.791 13.4646 17.7348 13.5283 17.6966 13.6029C17.6583 13.6775 17.6394 13.7607 17.6414 13.8446C17.6397 13.9324 17.6621 14.0191 17.7062 14.0948C17.7395 14.1552 17.7847 14.2081 17.839 14.2502C17.8934 14.2923 17.9557 14.3227 18.0221 14.3396C18.0853 14.357 18.1514 14.3614 18.2163 14.3525C18.2813 14.3436 18.3438 14.3217 18.4001 14.288L20.4305 13.1075C20.8075 12.8882 21.1251 12.5787 21.3549 12.2062C21.5847 11.8338 21.7198 11.4099 21.7481 10.9723L21.8264 9.71565C21.8291 9.67124 21.8426 9.62819 21.8657 9.59025C21.8887 9.55231 21.9207 9.52065 21.9587 9.49805L23.3087 8.70925C23.3393 8.68686 23.3741 8.67119 23.4111 8.66323C23.448 8.65528 23.4862 8.65522 23.5232 8.66307C23.5602 8.67092 23.5951 8.6865 23.6257 8.70879C23.6563 8.73109 23.6819 8.75961 23.7009 8.79251C23.7199 8.82542 23.7318 8.86197 23.7359 8.8998C23.74 8.93764 23.7362 8.97592 23.7247 9.01216C23.7131 9.04841 23.6942 9.08182 23.6691 9.11023C23.6439 9.13864 23.6131 9.16141 23.5787 9.17709L22.3529 9.89517L22.2854 11.0076C22.2511 11.5346 22.0883 12.0449 21.8113 12.4933C21.5344 12.9416 21.1519 13.3142 20.6978 13.578L18.6701 14.7558C18.5134 14.8504 18.3344 14.9011 18.1517 14.9027Z" fill="#2A2A2A"/>
<path id="Vector_7" d="M23.8406 9.90056C23.7931 9.90075 23.7463 9.88827 23.705 9.86439C23.6638 9.84051 23.6295 9.80607 23.6057 9.76456L20.4872 4.32456C20.4693 4.29368 20.4575 4.25953 20.4527 4.22407C20.4479 4.1886 20.45 4.15253 20.4591 4.11791C20.4681 4.08329 20.4838 4.05081 20.5053 4.02233C20.5268 3.99384 20.5537 3.96992 20.5844 3.95192L21.9344 3.16584C21.9964 3.13038 22.0698 3.12106 22.1386 3.13991C22.2074 3.15877 22.266 3.20426 22.3016 3.26648L25.4255 8.70376C25.4433 8.73473 25.4549 8.76894 25.4595 8.80441C25.4641 8.83988 25.4618 8.87593 25.4525 8.91048C25.4433 8.94521 25.4274 8.97776 25.4056 9.00624C25.3838 9.03472 25.3566 9.05856 25.3256 9.0764L23.9756 9.86248C23.9348 9.88692 23.8882 9.90006 23.8406 9.90056ZM21.0893 4.28376L23.9378 9.24776L24.8234 8.73368L21.9722 3.7724L21.0893 4.28376Z" fill="#2A2A2A"/>
<path id="Vector_8" d="M11.9398 9.56628C11.8922 9.56676 11.8453 9.55355 11.8048 9.5282L11.1919 9.17188C11.161 9.15411 11.1339 9.13035 11.1121 9.10197C11.0903 9.07359 11.0743 9.04114 11.065 9.00651C11.0557 8.97187 11.0533 8.93572 11.058 8.90015C11.0626 8.86458 11.0742 8.83028 11.092 8.79924C11.1286 8.73721 11.1881 8.69233 11.2574 8.67448C11.3268 8.65663 11.4004 8.66726 11.4619 8.70404L12.0748 9.06036C12.1268 9.09005 12.1676 9.1363 12.1907 9.19184C12.2138 9.24738 12.218 9.30908 12.2026 9.36727C12.1871 9.42545 12.1529 9.47682 12.1054 9.51333C12.0578 9.54984 11.9996 9.56942 11.9398 9.569V9.56628Z" fill="#2A2A2A"/>
<path id="Vector_9" d="M13.5003 8.65759C13.453 8.65791 13.4065 8.64572 13.3653 8.62223L11.7453 7.68927C11.683 7.6532 11.6375 7.59367 11.6187 7.52379C11.6 7.4539 11.6096 7.37939 11.6454 7.31662C11.6812 7.25386 11.7403 7.208 11.8097 7.18913C11.879 7.17025 11.953 7.17992 12.0153 7.21599L13.6353 8.14894C13.6873 8.17864 13.7281 8.22488 13.7512 8.28042C13.7743 8.33597 13.7785 8.39767 13.763 8.45585C13.7476 8.51403 13.7134 8.56541 13.6659 8.60192C13.6183 8.63843 13.5601 8.65801 13.5003 8.65759Z" fill="#2A2A2A"/>
<path id="Vector_10" d="M12.3311 11.6037C12.2839 11.6041 12.2373 11.5919 12.1961 11.5684L10.4115 10.5321C10.3792 10.5151 10.3507 10.4917 10.3276 10.4633C10.3046 10.4349 10.2874 10.4021 10.2773 10.3668C10.2671 10.3316 10.2642 10.2947 10.2686 10.2582C10.273 10.2218 10.2846 10.1867 10.3028 10.1549C10.3211 10.1232 10.3455 10.0954 10.3746 10.0734C10.4037 10.0514 10.437 10.0356 10.4724 10.0269C10.5077 10.0181 10.5445 10.0167 10.5804 10.0226C10.6164 10.0286 10.6507 10.0418 10.6815 10.0615L12.4661 11.0951C12.5182 11.1248 12.5589 11.171 12.582 11.2266C12.6052 11.2821 12.6093 11.3438 12.5939 11.402C12.5784 11.4602 12.5443 11.5116 12.4967 11.5481C12.4492 11.5846 12.3909 11.6042 12.3311 11.6037Z" fill="#2A2A2A"/>
<path id="Vector_11" d="M12.3252 11.0322C12.1398 11.0302 11.9581 10.9789 11.7988 10.8833C11.6395 10.7878 11.5081 10.6514 11.418 10.4882C11.3288 10.3277 11.2814 10.1471 11.2803 9.96319C11.2793 9.77703 11.3273 9.59392 11.4193 9.43246C11.5113 9.27099 11.644 9.13691 11.8041 9.04383L13.3647 8.15983C13.427 8.12376 13.501 8.1141 13.5703 8.13298C13.6397 8.15185 13.6988 8.19771 13.7346 8.26047C13.7704 8.32323 13.78 8.39775 13.7612 8.46764C13.7425 8.53752 13.697 8.59704 13.6347 8.63311L12.0741 9.51983C11.9955 9.56388 11.9303 9.62869 11.8856 9.7073C11.8409 9.78591 11.8183 9.87533 11.8203 9.96591C11.8204 10.0559 11.8441 10.1442 11.8889 10.2221C11.9338 10.2999 11.9982 10.3644 12.0757 10.4091C12.1532 10.4538 12.2411 10.4771 12.3304 10.4766C12.4197 10.4762 12.5073 10.452 12.5844 10.4066L13.3647 9.95503C13.3955 9.93717 13.4296 9.92561 13.4649 9.921C13.5001 9.91639 13.536 9.91883 13.5703 9.92818C13.6047 9.93752 13.6369 9.95359 13.665 9.97547C13.6932 9.99734 13.7169 10.0246 13.7346 10.0557C13.7523 10.0867 13.7638 10.121 13.7684 10.1566C13.7729 10.1921 13.7705 10.2282 13.7612 10.2628C13.752 10.2974 13.736 10.3299 13.7143 10.3583C13.6926 10.3866 13.6655 10.4105 13.6347 10.4283L12.8544 10.8798C12.694 10.9758 12.5117 11.0283 12.3252 11.0322Z" fill="#2A2A2A"/>
<path id="Vector_12" d="M11.9398 9.56628C11.8922 9.56676 11.8453 9.55355 11.8048 9.5282L11.1919 9.17188C11.161 9.15411 11.1339 9.13035 11.1121 9.10197C11.0903 9.07359 11.0743 9.04114 11.065 9.00651C11.0557 8.97187 11.0533 8.93572 11.058 8.90015C11.0626 8.86458 11.0742 8.83028 11.092 8.79924C11.1286 8.73721 11.1881 8.69233 11.2574 8.67448C11.3268 8.65663 11.4004 8.66726 11.4619 8.70404L12.0748 9.06036C12.1268 9.09005 12.1676 9.1363 12.1907 9.19184C12.2138 9.24738 12.218 9.30908 12.2026 9.36727C12.1871 9.42545 12.1529 9.47682 12.1054 9.51333C12.0578 9.54984 11.9996 9.56942 11.9398 9.569V9.56628Z" fill="#2A2A2A"/>
<path id="Vector_13" d="M10.3792 12.2863C10.3319 12.2866 10.2854 12.2744 10.2442 12.2509L9.63132 11.8919C9.60061 11.8739 9.57372 11.85 9.5522 11.8215C9.53069 11.793 9.51497 11.7605 9.50594 11.7259C9.49691 11.6913 9.49475 11.6552 9.49958 11.6197C9.50442 11.5843 9.51616 11.5501 9.53412 11.5192C9.57063 11.458 9.62962 11.4136 9.69834 11.3958C9.76706 11.378 9.83997 11.3881 9.90132 11.424L10.5304 11.7804C10.5917 11.8167 10.6363 11.8759 10.6545 11.9452C10.6727 12.0145 10.663 12.0882 10.6276 12.1503C10.6027 12.1939 10.5664 12.2297 10.5225 12.2537C10.4787 12.2777 10.4291 12.289 10.3792 12.2863Z" fill="#2A2A2A"/>
<path id="Vector_14" d="M12.3311 11.6037C12.2839 11.6041 12.2373 11.5919 12.1961 11.5684L10.4115 10.5321C10.3792 10.5151 10.3507 10.4917 10.3276 10.4633C10.3046 10.4349 10.2874 10.4021 10.2773 10.3668C10.2671 10.3316 10.2642 10.2947 10.2686 10.2582C10.273 10.2218 10.2846 10.1867 10.3028 10.1549C10.3211 10.1232 10.3455 10.0954 10.3746 10.0734C10.4037 10.0514 10.437 10.0356 10.4724 10.0269C10.5077 10.0181 10.5445 10.0167 10.5804 10.0226C10.6164 10.0286 10.6507 10.0418 10.6815 10.0615L12.4661 11.0951C12.5182 11.1248 12.5589 11.171 12.582 11.2266C12.6052 11.2821 12.6093 11.3438 12.5939 11.402C12.5784 11.4602 12.5443 11.5116 12.4967 11.5481C12.4492 11.5846 12.3909 11.6042 12.3311 11.6037Z" fill="#2A2A2A"/>
<path id="Vector_15" d="M10.3787 14.0979C10.3369 14.0956 10.2963 14.0835 10.2599 14.0626L6.32062 11.7832C5.8928 11.5316 5.52796 11.1845 5.25412 10.7687L4.71412 9.93907L3.41812 9.18563C3.35935 9.14799 3.31729 9.08893 3.30072 9.02079C3.28415 8.95265 3.29436 8.8807 3.32921 8.81996C3.36406 8.75922 3.42086 8.7144 3.48774 8.69485C3.55462 8.67531 3.62642 8.68255 3.68812 8.71507L5.03812 9.50115C5.07481 9.52168 5.10624 9.55056 5.12992 9.58547L5.71042 10.4695C5.9361 10.8164 6.23942 11.1052 6.59602 11.3127L10.5137 13.6002C10.5644 13.6305 10.6039 13.6766 10.6261 13.7316C10.6483 13.7866 10.652 13.8474 10.6367 13.9047C10.6214 13.9621 10.5879 14.0128 10.5413 14.0491C10.4948 14.0855 10.4376 14.1055 10.3787 14.1061V14.0979Z" fill="#2A2A2A"/>
<path id="Vector_16" d="M10.3792 12.2863C10.3319 12.2866 10.2854 12.2744 10.2442 12.2509L9.63132 11.8919C9.60061 11.8739 9.57372 11.85 9.5522 11.8215C9.53069 11.793 9.51497 11.7605 9.50594 11.7259C9.49691 11.6913 9.49475 11.6552 9.49958 11.6197C9.50442 11.5843 9.51616 11.5501 9.53412 11.5192C9.57063 11.458 9.62962 11.4136 9.69834 11.3958C9.76706 11.378 9.83997 11.3881 9.90132 11.424L10.5304 11.7804C10.5917 11.8167 10.6363 11.8759 10.6545 11.9452C10.6727 12.0145 10.663 12.0882 10.6276 12.1503C10.6027 12.1939 10.5664 12.2297 10.5225 12.2537C10.4787 12.2777 10.4291 12.289 10.3792 12.2863Z" fill="#2A2A2A"/>
<path id="Vector_17" d="M12.7463 8.09724C12.5623 8.09841 12.3813 8.04954 12.2225 7.9558L11.372 7.46076C11.3397 7.44376 11.3112 7.42035 11.2882 7.39196C11.2651 7.36356 11.248 7.33076 11.2379 7.29553C11.2277 7.2603 11.2247 7.22336 11.2291 7.18695C11.2335 7.15053 11.2452 7.11539 11.2634 7.08363C11.2816 7.05187 11.306 7.02415 11.3352 7.00214C11.3643 6.98013 11.3976 6.96428 11.4329 6.95556C11.4683 6.94683 11.5051 6.9454 11.541 6.95135C11.5769 6.95731 11.6113 6.97052 11.642 6.9902L12.4925 7.48524C12.6092 7.54696 12.745 7.56083 12.8716 7.52395C12.9981 7.48706 13.1057 7.40229 13.1716 7.28736C13.2375 7.17244 13.2568 7.03627 13.2253 6.90737C13.1939 6.77847 13.1141 6.66682 13.0028 6.5958L10.9751 5.41804C10.5986 5.19848 10.174 5.07613 9.73924 5.06189C9.30443 5.04765 8.87287 5.14197 8.48301 5.33644L7.35981 5.89676C7.32075 5.91772 7.27717 5.92868 7.23291 5.92868C7.18865 5.92868 7.14508 5.91772 7.10601 5.89676L5.75601 5.1134C5.69724 5.07576 5.65518 5.01671 5.63861 4.94857C5.62204 4.88043 5.63225 4.80847 5.6671 4.74773C5.70195 4.687 5.75875 4.64217 5.82563 4.62263C5.89251 4.60308 5.96431 4.61032 6.02601 4.64284L7.25451 5.35276L8.24811 4.85772C8.71748 4.62271 9.23731 4.50841 9.76119 4.52502C10.2851 4.54163 10.7967 4.68864 11.2505 4.95292L13.2782 6.1334C13.4774 6.25045 13.6328 6.43025 13.7204 6.64509C13.8081 6.85992 13.8231 7.09784 13.7632 7.32214C13.7033 7.54645 13.5718 7.74466 13.389 7.88622C13.2062 8.02777 12.9823 8.10479 12.7517 8.1054L12.7463 8.09724Z" fill="#2A2A2A"/>
<path id="Vector_18" d="M3.15924 9.90084C3.11194 9.90117 3.06538 9.88897 3.02424 9.86548L1.67424 9.0794C1.64325 9.06156 1.61608 9.03772 1.5943 9.00924C1.57251 8.98076 1.55655 8.94821 1.54734 8.91348C1.53812 8.87892 1.53576 8.84288 1.54039 8.80741C1.54503 8.77194 1.55656 8.73773 1.57434 8.70676L4.69554 3.26404C4.73115 3.20182 4.78975 3.15632 4.85854 3.13747C4.92734 3.11862 5.00074 3.12794 5.06274 3.1634L6.41274 3.94948C6.44345 3.96747 6.47033 3.9914 6.49185 4.01988C6.51337 4.04837 6.52909 4.08085 6.53812 4.11547C6.54715 4.15009 6.54931 4.18616 6.54447 4.22162C6.53964 4.25708 6.5279 4.29124 6.50994 4.32212L3.39144 9.76212C3.36822 9.80373 3.33454 9.83846 3.29378 9.86281C3.25302 9.88716 3.20662 9.90028 3.15924 9.90084ZM2.17644 8.74484L3.06204 9.24804L5.91054 4.28404L5.02764 3.77268L2.17644 8.74484Z" fill="#2A2A2A"/>
<path id="Vector_19" d="M11.9396 15.0061C11.868 15.0061 11.7993 14.9774 11.7487 14.9264C11.698 14.8754 11.6696 14.8062 11.6696 14.7341V12.0141C11.6747 11.9436 11.6653 11.8728 11.6421 11.8062C11.6188 11.7395 11.5821 11.6784 11.5344 11.6266C11.4866 11.5749 11.4288 11.5336 11.3645 11.5054C11.3002 11.4772 11.2308 11.4626 11.1607 11.4626C11.0905 11.4626 11.0211 11.4772 10.9568 11.5054C10.8925 11.5336 10.8347 11.5749 10.7869 11.6266C10.7392 11.6784 10.7025 11.7395 10.6792 11.8062C10.656 11.8728 10.6466 11.9436 10.6517 12.0141V13.8256C10.6517 13.8977 10.6233 13.9669 10.5726 14.0179C10.522 14.0689 10.4533 14.0976 10.3817 14.0976C10.3101 14.0976 10.2414 14.0689 10.1908 14.0179C10.1401 13.9669 10.1117 13.8977 10.1117 13.8256V12.0141C10.1045 11.8708 10.1263 11.7275 10.1757 11.593C10.2252 11.4584 10.3013 11.3354 10.3994 11.2315C10.4975 11.1275 10.6156 11.0447 10.7465 10.9881C10.8773 10.9315 11.0182 10.9023 11.1607 10.9023C11.3031 10.9023 11.444 10.9315 11.5749 10.9881C11.7057 11.0447 11.8238 11.1275 11.9219 11.2315C12.02 11.3354 12.0961 11.4584 12.1456 11.593C12.195 11.7275 12.2168 11.8708 12.2096 12.0141V14.7341C12.2096 14.8062 12.1812 14.8754 12.1305 14.9264C12.0799 14.9774 12.0112 15.0061 11.9396 15.0061Z" fill="#2A2A2A"/>
<path id="Vector_20" d="M11.9389 15.0061C11.8673 15.0061 11.7987 14.9775 11.748 14.9265C11.6974 14.8755 11.6689 14.8063 11.6689 14.7341V12.0141C11.6697 11.8271 11.7202 11.6437 11.8152 11.483C11.9102 11.3223 12.0461 11.1901 12.2089 11.1002L12.2386 11.0866C12.3886 11.0014 12.5578 10.9564 12.73 10.9561C13.0067 10.9589 13.2711 11.0717 13.4657 11.2698C13.6604 11.4679 13.7696 11.7354 13.7695 12.0141V13.3741C13.7695 13.4463 13.7411 13.5155 13.6905 13.5665C13.6398 13.6175 13.5712 13.6461 13.4995 13.6461C13.4279 13.6461 13.3593 13.6175 13.3086 13.5665C13.258 13.5155 13.2295 13.4463 13.2295 13.3741V12.0141C13.2295 11.8778 13.1758 11.747 13.0801 11.6506C12.9844 11.5542 12.8546 11.5001 12.7192 11.5001C12.6337 11.5004 12.5497 11.5239 12.4762 11.5681L12.4384 11.5871C12.3681 11.6335 12.3102 11.6969 12.2702 11.7714C12.2301 11.846 12.2091 11.9294 12.2089 12.0141V14.7341C12.2089 14.8063 12.1805 14.8755 12.1299 14.9265C12.0792 14.9775 12.0106 15.0061 11.9389 15.0061Z" fill="#2A2A2A"/>
<path id="Vector_21" d="M16.6181 12.2861C16.5465 12.2861 16.4778 12.2575 16.4272 12.2065C16.3765 12.1555 16.3481 12.0863 16.3481 12.0141C16.3481 11.8783 16.2947 11.7479 16.1996 11.6516C16.1045 11.5553 15.9753 11.5008 15.8405 11.5001C15.7638 11.4994 15.688 11.5168 15.6191 11.5508C15.5502 11.5848 15.4901 11.6345 15.4436 11.6959C15.3995 11.7529 15.3348 11.7899 15.2637 11.7988C15.1925 11.8078 15.1208 11.7879 15.0642 11.7435C15.0077 11.6991 14.9709 11.6339 14.962 11.5623C14.9532 11.4906 14.9729 11.4183 15.017 11.3613C15.1142 11.2347 15.2391 11.1323 15.3819 11.0621C15.5246 10.9918 15.6816 10.9555 15.8405 10.9561C16.1186 10.9568 16.385 11.0686 16.5814 11.2669C16.7778 11.4653 16.8881 11.734 16.8881 12.0141C16.8881 12.0863 16.8596 12.1555 16.809 12.2065C16.7584 12.2575 16.6897 12.2861 16.6181 12.2861Z" fill="#2A2A2A"/>
<path id="Vector_22" d="M15.8413 22.4998C15.7697 22.4998 15.701 22.4711 15.6504 22.4201C15.5998 22.3691 15.5713 22.2999 15.5713 22.2278V20.672C15.5707 20.6296 15.58 20.5877 15.5983 20.5496L16.0708 19.584C16.2516 19.2134 16.3441 18.8055 16.3408 18.3926V13.8257C16.3408 13.7536 16.3693 13.6844 16.4199 13.6334C16.4705 13.5824 16.5392 13.5537 16.6108 13.5537C16.6824 13.5537 16.7511 13.5824 16.8017 13.6334C16.8524 13.6844 16.8808 13.7536 16.8808 13.8257V18.3926C16.8801 18.89 16.7655 19.3805 16.546 19.826L16.1032 20.7209V22.2278C16.1032 22.2985 16.0759 22.3665 16.027 22.4173C15.9781 22.4681 15.9115 22.4977 15.8413 22.4998Z" fill="#2A2A2A"/>
<path id="Vector_23" d="M15.0611 15.0061C14.9895 15.0061 14.9208 14.9775 14.8702 14.9265C14.8195 14.8755 14.7911 14.8063 14.7911 14.7341V12.0141C14.7911 11.929 14.7699 11.8453 14.7293 11.7706C14.6887 11.696 14.6301 11.6329 14.5589 11.5871L14.5238 11.5681C14.4503 11.5239 14.3664 11.5004 14.2808 11.5001C14.1454 11.5001 14.0156 11.5542 13.9199 11.6506C13.8242 11.747 13.7705 11.8778 13.7705 12.0141V13.3741C13.7705 13.4463 13.742 13.5155 13.6914 13.5665C13.6408 13.6175 13.5721 13.6461 13.5005 13.6461C13.4289 13.6461 13.3602 13.6175 13.3095 13.5665C13.2589 13.5155 13.2305 13.4463 13.2305 13.3741V12.0141C13.2305 11.7335 13.3411 11.4644 13.5381 11.266C13.7351 11.0675 14.0022 10.9561 14.2808 10.9561C14.4538 10.9568 14.6238 11.0017 14.7749 11.0866L14.8019 11.1002C14.9647 11.1901 15.1007 11.3223 15.1956 11.483C15.2906 11.6437 15.3411 11.8271 15.3419 12.0141V14.7341C15.3419 14.7708 15.3346 14.8071 15.3203 14.8408C15.3061 14.8745 15.2852 14.905 15.259 14.9304C15.2328 14.9558 15.2017 14.9756 15.1677 14.9886C15.1337 15.0016 15.0974 15.0076 15.0611 15.0061Z" fill="#2A2A2A"/>
<path id="Vector_24" d="M13.5005 15.7241C13.4289 15.7241 13.3602 15.6955 13.3095 15.6445C13.2589 15.5935 13.2305 15.5243 13.2305 15.4521V13.3741C13.2305 13.3019 13.2589 13.2327 13.3095 13.1817C13.3602 13.1307 13.4289 13.1021 13.5005 13.1021C13.5721 13.1021 13.6408 13.1307 13.6914 13.1817C13.742 13.2327 13.7705 13.3019 13.7705 13.3741V15.4521C13.7705 15.5243 13.742 15.5935 13.6914 15.6445C13.6408 15.6955 13.5721 15.7241 13.5005 15.7241Z" fill="#2A2A2A"/>
<path id="Vector_25" d="M15.061 15.7245C14.9894 15.7245 14.9207 15.6958 14.8701 15.6448C14.8195 15.5938 14.791 15.5246 14.791 15.4525V14.7344C14.791 14.6623 14.8195 14.5931 14.8701 14.5421C14.9207 14.4911 14.9894 14.4624 15.061 14.4624C15.1326 14.4624 15.2013 14.4911 15.2519 14.5421C15.3026 14.5931 15.331 14.6623 15.331 14.7344V15.4525C15.331 15.5246 15.3026 15.5938 15.2519 15.6448C15.2013 15.6958 15.1326 15.7245 15.061 15.7245Z" fill="#2A2A2A"/>
<path id="Vector_26" d="M10.3813 15.4305C10.3097 15.4305 10.241 15.4019 10.1904 15.3508C10.1398 15.2998 10.1113 15.2306 10.1113 15.1585V13.8257C10.1113 13.7536 10.1398 13.6844 10.1904 13.6334C10.241 13.5824 10.3097 13.5537 10.3813 13.5537C10.4529 13.5537 10.5216 13.5824 10.5722 13.6334C10.6229 13.6844 10.6513 13.7536 10.6513 13.8257V15.1585C10.6513 15.2306 10.6229 15.2998 10.5722 15.3508C10.5216 15.4019 10.4529 15.4305 10.3813 15.4305Z" fill="#2A2A2A"/>
<path id="Vector_27" d="M11.9389 15.7245C11.8673 15.7245 11.7987 15.6958 11.748 15.6448C11.6974 15.5938 11.6689 15.5246 11.6689 15.4525V14.7344C11.6689 14.6623 11.6974 14.5931 11.748 14.5421C11.7987 14.4911 11.8673 14.4624 11.9389 14.4624C12.0106 14.4624 12.0792 14.4911 12.1299 14.5421C12.1805 14.5931 12.2089 14.6623 12.2089 14.7344V15.4525C12.2089 15.5246 12.1805 15.5938 12.1299 15.6448C12.0792 15.6958 12.0106 15.7245 11.9389 15.7245Z" fill="#2A2A2A"/>
<path id="Vector_28" d="M11.159 22.4999C11.0874 22.4999 11.0187 22.4713 10.9681 22.4203C10.9174 22.3693 10.889 22.3001 10.889 22.2279V20.8027L9.96828 20.1852C9.53169 19.8923 9.17379 19.4951 8.92647 19.0291C8.67915 18.5631 8.55009 18.0426 8.55078 17.5142V15.1587C8.55078 14.878 8.66144 14.6089 8.85841 14.4105C9.05538 14.2121 9.32253 14.1006 9.60108 14.1006C9.87964 14.1006 10.1468 14.2121 10.3438 14.4105C10.5407 14.6089 10.6514 14.878 10.6514 15.1587V16.1487C10.6514 16.2209 10.6229 16.2901 10.5723 16.3411C10.5217 16.3921 10.453 16.4207 10.3814 16.4207C10.3098 16.4207 10.2411 16.3921 10.1905 16.3411C10.1398 16.2901 10.1114 16.2209 10.1114 16.1487V15.1587C10.1114 15.0223 10.0576 14.8916 9.96192 14.7952C9.86622 14.6987 9.73642 14.6446 9.60108 14.6446C9.46574 14.6446 9.33595 14.6987 9.24025 14.7952C9.14455 14.8916 9.09078 15.0223 9.09078 15.1587V17.5142C9.08904 17.9525 9.19485 18.3845 9.39882 18.7718C9.60278 19.159 9.89857 19.4894 10.2599 19.7337L11.3021 20.43C11.3391 20.4552 11.3693 20.4893 11.3901 20.5292C11.4108 20.5691 11.4214 20.6135 11.4209 20.6585V22.2279C11.4209 22.2987 11.3936 22.3667 11.3447 22.4175C11.2958 22.4682 11.2292 22.4978 11.159 22.4999Z" fill="#2A2A2A"/>
<path id="Vector_29" d="M16.6183 24.0722H10.3813C10.3097 24.0722 10.241 24.0436 10.1904 23.9925C10.1398 23.9415 10.1113 23.8724 10.1113 23.8002V22.2281C10.1113 22.1559 10.1398 22.0867 10.1904 22.0357C10.241 21.9847 10.3097 21.9561 10.3813 21.9561H16.6183C16.6899 21.9561 16.7586 21.9847 16.8092 22.0357C16.8599 22.0867 16.8883 22.1559 16.8883 22.2281V23.8002C16.8883 23.8724 16.8599 23.9415 16.8092 23.9925C16.7586 24.0436 16.6899 24.0722 16.6183 24.0722ZM10.6513 23.5282H16.3483V22.5001H10.6513V23.5282Z" fill="#2A2A2A"/>
</g>
</svg>
