<svg width="23" height="25" viewBox="0 0 23 25" fill="none" xmlns="http://www.w3.org/2000/svg">
<g id="noun-messages-1713365 1">
<g id="Group">
<path id="Vector" d="M11.4998 2.2627C6.18937 2.2627 1.83984 5.71655 1.83984 10.0415C1.83984 12.4877 3.31125 14.4913 5.46952 15.8986L3.70142 20.0317C3.68301 20.0744 3.67841 20.1217 3.68824 20.1671C3.69808 20.2124 3.72188 20.2537 3.75641 20.2854C3.79093 20.317 3.83452 20.3374 3.88126 20.3439C3.928 20.3503 3.97562 20.3425 4.01767 20.3214L9.02017 17.6437C9.73811 17.7674 10.7771 17.8274 11.4998 17.8274C16.8103 17.8274 21.1598 14.3665 21.1598 10.0415C21.1598 5.71655 16.8103 2.2627 11.4998 2.2627ZM11.4998 2.71487C16.6077 2.71487 20.6998 6.01611 20.6998 10.0415C20.6998 14.0669 16.6077 17.3752 11.4998 17.3752C10.7773 17.3752 9.67074 17.3068 9.01297 17.1844C8.96166 17.1745 8.90841 17.1819 8.86202 17.2057L4.37702 19.6149L5.95827 15.9128C5.97876 15.8641 5.98136 15.81 5.96562 15.7597C5.94987 15.7094 5.91677 15.6661 5.87202 15.6372C3.70933 14.2815 2.29984 12.3715 2.29984 10.0415C2.29984 6.01611 6.39196 2.71487 11.4998 2.71487ZM5.97984 8.14096C4.96637 8.14096 4.13984 8.95342 4.13984 9.94965C4.13984 10.9459 4.96637 11.7583 5.97984 11.7583C6.99332 11.7583 7.81984 10.9459 7.81984 9.94965C7.81984 8.95342 6.99332 8.14096 5.97984 8.14096ZM11.4998 8.14096C10.4864 8.14096 9.65984 8.95342 9.65984 9.94965C9.65984 10.9459 10.4864 11.7583 11.4998 11.7583C12.5133 11.7583 13.3398 10.9459 13.3398 9.94965C13.3398 8.95342 12.5133 8.14096 11.4998 8.14096ZM17.0198 8.14096C16.0064 8.14096 15.1798 8.95342 15.1798 9.94965C15.1798 10.9459 16.0064 11.7583 17.0198 11.7583C18.0333 11.7583 18.8598 10.9459 18.8598 9.94965C18.8598 8.95342 18.0333 8.14096 17.0198 8.14096ZM5.97984 8.59313C6.74473 8.59313 7.35984 9.19779 7.35984 9.94965C7.35984 10.7015 6.74473 11.3062 5.97984 11.3062C5.21496 11.3062 4.59984 10.7015 4.59984 9.94965C4.59984 9.19779 5.21496 8.59313 5.97984 8.59313ZM11.4998 8.59313C12.2647 8.59313 12.8798 9.19779 12.8798 9.94965C12.8798 10.7015 12.2647 11.3062 11.4998 11.3062C10.735 11.3062 10.1198 10.7015 10.1198 9.94965C10.1198 9.19779 10.735 8.59313 11.4998 8.59313ZM17.0198 8.59313C17.7847 8.59313 18.3998 9.19779 18.3998 9.94965C18.3998 10.7015 17.7847 11.3062 17.0198 11.3062C16.255 11.3062 15.6398 10.7015 15.6398 9.94965C15.6398 9.19779 16.255 8.59313 17.0198 8.59313Z" fill="#2A2A2A"/>
</g>
</g>
</svg>
