<svg width="23" height="29" viewBox="0 0 23 29" fill="none" xmlns="http://www.w3.org/2000/svg">
<g id="noun-lightbulb-6186477 1">
<g id="Group">
<path id="Vector" fill-rule="evenodd" clip-rule="evenodd" d="M9.07339 18.9969C9.02739 19.0979 9.00247 19.2086 9.00247 19.3222C9.00247 19.5208 9.07818 19.7122 9.21378 19.8563C9.07818 20.0003 9.00247 20.1912 9.00247 20.3899C9.00247 20.5953 9.08345 20.793 9.22768 20.9385C9.37191 21.0839 9.56741 21.1656 9.77105 21.1656H9.86832C9.89947 21.4344 10.0197 21.6862 10.2109 21.8795C10.4357 22.1062 10.7404 22.2333 11.0581 22.2333C11.3437 22.2333 11.6571 22.2333 11.9426 22.2333C12.2603 22.2333 12.5651 22.1062 12.7898 21.8795C12.981 21.6862 13.1013 21.4344 13.1324 21.1656H13.2297C13.4333 21.1656 13.6288 21.0839 13.7731 20.9385C13.9173 20.793 13.9983 20.5958 13.9983 20.3904C13.9983 20.1917 13.9226 20.0003 13.7869 19.8563C13.9226 19.7122 13.9983 19.5213 13.9983 19.3227C13.9983 19.2091 13.9733 19.0979 13.9273 18.9969C14.4535 18.8698 14.8449 18.3918 14.8449 17.8219C14.8449 17.2642 14.8449 16.5836 14.8536 16.1254C14.8536 16.124 14.8536 16.122 14.8536 16.1206C14.8536 15.8813 14.9724 15.6576 15.1703 15.5246C15.1717 15.5237 15.1727 15.5227 15.1741 15.5217C16.8512 14.3468 17.9499 12.3897 17.9499 10.1756C17.9499 6.58539 15.0601 3.67041 11.5004 3.67041C7.94064 3.67041 5.05078 6.58539 5.05078 10.1756C5.05078 12.3902 6.14999 14.3477 7.83234 15.5155C7.8333 15.5159 7.83426 15.5169 7.83522 15.5174C8.03551 15.6518 8.15578 15.878 8.15578 16.1206V17.8219C8.15578 18.3918 8.54726 18.8698 9.07339 18.9969ZM12.6475 21.1656C12.6202 21.3053 12.5521 21.4353 12.451 21.5378C12.3159 21.6736 12.1333 21.75 11.9426 21.75H11.0581C10.8674 21.75 10.6848 21.6736 10.5497 21.5378C10.4486 21.4353 10.3806 21.3053 10.3532 21.1656H12.6475ZM13.5191 20.3899C13.5191 20.4672 13.4884 20.5421 13.4343 20.5967C13.3797 20.6514 13.3063 20.6823 13.2297 20.6823H9.77105C9.69438 20.6823 9.62107 20.6514 9.56645 20.5967C9.5123 20.5421 9.48163 20.4677 9.48163 20.3904C9.48163 20.313 9.5123 20.2381 9.56645 20.1835C9.62107 20.1289 9.69438 20.0979 9.77105 20.0979H13.2297C13.3063 20.0979 13.3797 20.1289 13.4343 20.1835C13.4884 20.2381 13.5191 20.3125 13.5191 20.3899ZM13.2297 19.0303C13.3063 19.0303 13.3797 19.0612 13.4343 19.1158C13.4884 19.1704 13.5191 19.2449 13.5191 19.3222C13.5191 19.3995 13.4884 19.4744 13.4343 19.5291C13.3797 19.5837 13.3063 19.6146 13.2297 19.6146H9.77105C9.69438 19.6146 9.62107 19.5837 9.56645 19.5291C9.5123 19.4744 9.48163 19.4 9.48163 19.3227C9.48163 19.2453 9.5123 19.1704 9.56645 19.1158C9.62107 19.0612 9.69438 19.0303 9.77105 19.0303H13.2297ZM12.3643 18.5469H13.647C14.0438 18.5469 14.3658 18.2221 14.3658 17.8219C14.3658 17.2617 14.3658 16.5788 14.3744 16.1177C14.3754 15.7185 14.5733 15.3463 14.902 15.124C16.454 14.036 17.4708 12.2249 17.4708 10.1756C17.4708 6.85219 14.7956 4.15374 11.5004 4.15374C8.20514 4.15374 5.52995 6.85219 5.52995 10.1756C5.52995 12.2244 6.54674 14.036 8.10307 15.1167C8.43514 15.3405 8.63495 15.7175 8.63495 16.1206V17.8219C8.63495 18.2221 8.95695 18.5469 9.3537 18.5469H10.6364V10.8054H9.62778C8.80649 10.8054 8.13949 10.1331 8.13949 9.30463C8.13949 8.4762 8.80649 7.8034 9.62778 7.8034C10.4491 7.8034 11.1156 8.4762 11.1156 9.30463V10.322H11.8851V9.30463C11.8851 8.4762 12.5517 7.8034 13.3729 7.8034C14.1942 7.8034 14.8612 8.4762 14.8612 9.30463C14.8612 10.12 14.2148 10.7846 13.4113 10.8049L13.3729 10.8054H12.3643V18.5469ZM11.8851 18.5469V10.8054H11.1156V18.5469H11.8851ZM13.3729 10.322C13.9297 10.322 14.3821 9.86627 14.3821 9.30463C14.3821 8.743 13.9297 8.28673 13.3729 8.28673C12.8162 8.28673 12.3643 8.743 12.3643 9.30463V10.322H13.3729ZM10.6364 10.322V9.30463C10.6364 8.743 10.1846 8.28673 9.62778 8.28673C9.07099 8.28673 8.61866 8.743 8.61866 9.30463C8.61866 9.86627 9.07099 10.322 9.62778 10.322H10.6364Z" fill="#2A2A2A"/>
<g id="Group_2">
<path id="Vector_2" fill-rule="evenodd" clip-rule="evenodd" d="M11.7397 2.62113V1.20838C11.7397 1.07511 11.6324 0.966797 11.5002 0.966797C11.3681 0.966797 11.2607 1.07511 11.2607 1.20838V2.62113C11.2607 2.7544 11.3681 2.86271 11.5002 2.86271C11.6324 2.86271 11.7397 2.7544 11.7397 2.62113Z" fill="#2A2A2A"/>
</g>
<g id="Group_3">
<path id="Vector_3" fill-rule="evenodd" clip-rule="evenodd" d="M7.9733 3.50923L7.27394 2.28643C7.20797 2.17108 7.06108 2.13169 6.94632 2.19858C6.83155 2.26546 6.7919 2.41357 6.85787 2.52892L7.55723 3.75172C7.6232 3.86707 7.77009 3.90646 7.88486 3.83958C7.99962 3.77269 8.03927 3.62458 7.9733 3.50923Z" fill="#2A2A2A"/>
</g>
<g id="Group_4">
<path id="Vector_4" fill-rule="evenodd" clip-rule="evenodd" d="M5.14996 6.18013L3.93636 5.47282C3.82187 5.4061 3.67534 5.44539 3.60953 5.56046C3.54372 5.67552 3.58328 5.82327 3.69776 5.88999L4.91137 6.59731C5.02585 6.66403 5.17238 6.62474 5.23819 6.50967C5.304 6.3946 5.26445 6.24685 5.14996 6.18013Z" fill="#2A2A2A"/>
</g>
<g id="Group_5">
<path id="Vector_5" fill-rule="evenodd" clip-rule="evenodd" d="M4.0307 9.9143H2.63012C2.498 9.9143 2.39062 10.0226 2.39062 10.1559C2.39062 10.2891 2.498 10.3975 2.63012 10.3975H4.0307C4.16282 10.3975 4.2702 10.2891 4.2702 10.1559C4.2702 10.0226 4.16282 9.9143 4.0307 9.9143Z" fill="#2A2A2A"/>
</g>
<g id="Group_6">
<path id="Vector_6" fill-rule="evenodd" clip-rule="evenodd" d="M4.91203 13.714L3.69842 14.4213C3.58394 14.4881 3.54438 14.6358 3.61019 14.7509C3.67601 14.866 3.82254 14.9052 3.93702 14.8385L5.15063 14.1312C5.26511 14.0645 5.30467 13.9167 5.23885 13.8017C5.17304 13.6866 5.02651 13.6473 4.91203 13.714Z" fill="#2A2A2A"/>
</g>
<g id="Group_7">
<path id="Vector_7" fill-rule="evenodd" clip-rule="evenodd" d="M15.4428 3.75172L16.1421 2.52892C16.2081 2.41357 16.1684 2.26546 16.0537 2.19858C15.9389 2.13169 15.792 2.17108 15.7261 2.28643L15.0267 3.50923C14.9607 3.62458 15.0004 3.77269 15.1151 3.83958C15.2299 3.90646 15.3768 3.86707 15.4428 3.75172Z" fill="#2A2A2A"/>
</g>
<g id="Group_8">
<path id="Vector_8" fill-rule="evenodd" clip-rule="evenodd" d="M18.0886 6.59731L19.3022 5.88999C19.4167 5.82327 19.4563 5.67552 19.3905 5.56046C19.3247 5.44539 19.1781 5.4061 19.0636 5.47282L17.85 6.18013C17.7356 6.24685 17.696 6.3946 17.7618 6.50967C17.8276 6.62474 17.9741 6.66403 18.0886 6.59731Z" fill="#2A2A2A"/>
</g>
<g id="Group_9">
<path id="Vector_9" fill-rule="evenodd" clip-rule="evenodd" d="M18.9693 10.3975H20.3699C20.502 10.3975 20.6094 10.2891 20.6094 10.1559C20.6094 10.0226 20.502 9.9143 20.3699 9.9143H18.9693C18.8372 9.9143 18.7298 10.0226 18.7298 10.1559C18.7298 10.2891 18.8372 10.3975 18.9693 10.3975Z" fill="#2A2A2A"/>
</g>
<g id="Group_10">
<path id="Vector_10" fill-rule="evenodd" clip-rule="evenodd" d="M17.8494 14.1312L19.063 14.8385C19.1775 14.9052 19.324 14.866 19.3898 14.7509C19.4556 14.6358 19.4161 14.4881 19.3016 14.4213L18.088 13.714C17.9735 13.6473 17.827 13.6866 17.7611 13.8017C17.6953 13.9167 17.7349 14.0645 17.8494 14.1312Z" fill="#2A2A2A"/>
</g>
</g>
</g>
</svg>
