<svg width="34" height="39" viewBox="0 0 34 39" fill="none" xmlns="http://www.w3.org/2000/svg">
<g id="noun-camera-757310 1">
<g id="Group">
<path id="Ellipse 37" d="M33.75 19C33.75 28.2508 26.2508 35.75 17 35.75C7.74923 35.75 0.25 28.2508 0.25 19C0.25 9.74923 7.74923 2.25 17 2.25C26.2508 2.25 33.75 9.74923 33.75 19Z" fill="white" fill-opacity="0.23" stroke="#1E81C4" stroke-width="0.5"/>
<path id="Vector" d="M13.5 10.0001C13.382 9.99957 13.3117 10.0705 13.2734 10.1291L12.0938 12.4286H8C6.89632 12.4286 6 13.2993 6 14.3715V25.0571C6 26.1293 6.89632 27 8 27H25C26.1037 27 27 26.1293 27 25.0571V14.3715C27 13.2993 26.1037 12.4286 25 12.4286H20.9062L19.7266 10.1291C19.6834 10.05 19.5921 9.99803 19.5 10.0001H13.5ZM13.6562 10.4858H19.3438L20.5235 12.7777C20.5645 12.8596 20.6562 12.915 20.75 12.9143H25C25.8353 12.9143 26.5 13.56 26.5 14.3715V25.0571C26.5 25.8686 25.8353 26.5143 25 26.5143H8C7.16467 26.5143 6.5 25.8686 6.5 25.0571V14.3715C6.5 13.56 7.16467 12.9143 8 12.9143H12.25C12.3438 12.9151 12.4356 12.8596 12.4766 12.7777L13.6562 10.4858ZM16.5 15.1C13.8797 15.1 11.75 17.1688 11.75 19.7143C11.75 22.2598 13.8796 24.3286 16.5 24.3286C19.1204 24.3286 21.25 22.2598 21.25 19.7143C21.25 17.1688 19.1204 15.1 16.5 15.1ZM16.5 15.5858C18.8502 15.5858 20.75 17.4313 20.75 19.7143C20.75 21.9973 18.8502 23.8429 16.5 23.8429C14.1499 23.8429 12.25 21.9973 12.25 19.7143C12.25 17.4313 14.1498 15.5858 16.5 15.5858Z" fill="#1E81C4"/>
</g>
</g>
</svg>
