<svg width="31" height="34" viewBox="0 0 31 34" fill="none" xmlns="http://www.w3.org/2000/svg">
<path fill-rule="evenodd" clip-rule="evenodd" d="M9.25075 19.2309H4.15466C4.0728 19.2335 3.99515 19.2681 3.93815 19.3275C3.88115 19.3868 3.84928 19.4662 3.84928 19.5489C3.84928 19.6315 3.88115 19.7109 3.93815 19.7703C3.99515 19.8296 4.0728 19.8642 4.15466 19.8668H9.25075C9.33261 19.8642 9.41026 19.8296 9.46726 19.7703C9.52426 19.7109 9.55614 19.6315 9.55614 19.5489C9.55614 19.4662 9.52426 19.3868 9.46726 19.3275C9.41026 19.2681 9.33261 19.2335 9.25075 19.2309ZM4.85526 18.4345H8.55015L9.43427 16.889C9.48378 16.8047 9.50991 16.7084 9.50991 16.6104C9.50991 16.5124 9.48378 16.4162 9.43427 16.3319C9.38818 16.2453 9.31904 16.1734 9.23464 16.1243C9.15024 16.0752 9.05392 16.0509 8.95656 16.0541H4.44885C4.35202 16.0524 4.25648 16.0767 4.17202 16.1245C4.08861 16.1747 4.01985 16.2462 3.97269 16.3319C3.92299 16.4161 3.89675 16.5124 3.89675 16.6104C3.89675 16.7085 3.92299 16.8047 3.97269 16.889L4.85681 18.4345H4.85526ZM21.121 24.2782C20.7881 24.2804 20.4695 24.415 20.2343 24.6527C19.9992 24.8905 19.8665 25.2123 19.8652 25.5482V26.8933H29.2991V25.5482C29.2979 25.2123 29.1652 24.8904 28.9301 24.6526C28.6949 24.4147 28.3762 24.2802 28.0433 24.2782H21.121ZM21.2977 23.4819H27.8697L27.2497 21.5913H21.9143L21.2977 23.4819ZM21.9449 26.0049C21.8403 26.0049 21.7399 25.963 21.6659 25.8883C21.5919 25.8136 21.5503 25.7123 21.5503 25.6067C21.5503 25.5011 21.5919 25.3998 21.6659 25.3251C21.7399 25.2505 21.8403 25.2085 21.9449 25.2085H22.0779C22.1826 25.2085 22.283 25.2505 22.357 25.3251C22.431 25.3998 22.4726 25.5011 22.4726 25.6067C22.4726 25.7123 22.431 25.8136 22.357 25.8883C22.283 25.963 22.1826 26.0049 22.0779 26.0049H21.9449ZM27.0891 26.0049C26.9844 26.0049 26.884 25.963 26.81 25.8883C26.736 25.8136 26.6945 25.7123 26.6945 25.6067C26.6945 25.5011 26.736 25.3998 26.81 25.3251C26.884 25.2505 26.9844 25.2085 27.0891 25.2085H27.2221C27.3267 25.2085 27.4271 25.2505 27.5011 25.3251C27.5751 25.3998 27.6167 25.5011 27.6167 25.6067C27.6167 25.7123 27.5751 25.8136 27.5011 25.8883C27.4271 25.963 27.3267 26.0049 27.2221 26.0049H27.0891ZM22.6989 11.3915H21.9096V10.5951H22.6989V11.3915ZM22.6989 14.5771H21.9096V13.7807H22.6989V14.5764V14.5771ZM22.6989 17.7626H21.9096V16.9662H22.6989V17.7626ZM10.8956 22.7652C10.8885 22.7537 10.8817 22.7415 10.8755 22.729C10.3981 21.8655 9.69441 21.1513 8.84155 20.6645H4.56386C3.69672 21.1597 2.98399 21.8896 2.50608 22.7718C1.97282 23.7455 1.69605 24.8409 1.70225 25.9533C1.70225 27.5207 2.21995 28.4557 3.06625 28.9915C3.94975 29.5524 5.21393 29.716 6.63869 29.716C8.06345 29.716 9.36266 29.5517 10.2806 28.9887C11.1563 28.4513 11.7032 27.5185 11.7032 25.9545C11.7096 24.8417 11.4328 23.7458 10.8993 22.7718L10.8956 22.7652ZM22.0107 27.8094H20.9102V28.8442C20.9108 28.8765 20.9238 28.9073 20.9465 28.9302C20.9691 28.953 20.9997 28.9662 21.0317 28.9668H21.8891C21.9212 28.9662 21.9517 28.953 21.9744 28.9302C21.997 28.9073 22.01 28.8765 22.0107 28.8442V27.8094ZM28.2556 27.7494C28.1931 27.7888 28.1209 27.8096 28.0473 27.8094H27.1542V28.8442C27.1548 28.8766 27.1679 28.9074 27.1906 28.9303C27.2133 28.9532 27.2439 28.9662 27.276 28.9668H28.1332C28.1652 28.9662 28.1959 28.9532 28.2186 28.9303C28.2413 28.9074 28.2544 28.8766 28.255 28.8442V27.7494H28.2556ZM18.3905 27.0131V6.86874L20.6389 7.60476C20.659 7.61305 20.6798 7.61974 20.7009 7.62478L26.4285 9.49939V20.7949H21.629C21.546 20.795 21.4652 20.8215 21.3979 20.8706C21.3307 20.9198 21.2805 20.989 21.2546 21.0686L20.4253 23.6064C20.0307 23.7522 19.6899 24.0165 19.4486 24.3636C19.2074 24.7108 19.0773 25.1242 19.0759 25.5482V27.0131H18.3905ZM24.6361 11.3915V10.5951H23.8468V11.3915H24.6361ZM24.6361 14.5771V13.7807H23.8468V14.5764L24.6361 14.5771ZM24.6361 17.7626V16.9662H23.8468V17.7626H24.6361ZM13.9538 7.86876H13.1645V7.07237H13.9538V7.86876ZM13.9538 11.0543H13.1645V10.2579H13.9538V11.0543ZM13.9538 14.2396H13.1645V13.4432H13.9538V14.2396ZM13.9538 17.4251H13.1645V16.6287H13.9538V17.4251ZM13.9538 20.6107H13.1645V19.8143H13.9538V20.6107ZM15.8906 7.86876H15.1014V7.07237H15.8906V7.86876ZM15.8906 11.0543H15.1014V10.2579H15.8906V11.0543ZM15.8906 14.2396H15.1014V13.4432H15.8906V14.2396ZM15.8906 17.4251H15.1014V16.6287H15.8906V17.4251ZM15.8906 20.6107H15.1014V19.8143H15.8906V20.6107ZM10.8339 9.19628V21.2976C10.5611 20.9777 10.2561 20.6874 9.92376 20.4311C10.093 20.2996 10.2207 20.1213 10.2915 19.918C10.3623 19.7146 10.3732 19.4949 10.3228 19.2855C10.2723 19.0761 10.1628 18.8859 10.0074 18.738C9.852 18.5901 9.65744 18.4909 9.44729 18.4523L10.1157 17.284C10.236 17.0802 10.2995 16.8473 10.2995 16.61C10.2995 16.3727 10.236 16.1398 10.1157 15.9359C9.99948 15.7293 9.83087 15.5576 9.62716 15.4385C9.42345 15.3194 9.19198 15.2572 8.95656 15.2583H5.14976V9.19628H10.8339ZM11.6232 8.79684V4.88934L20.3965 1.56396V6.69169L18.1161 5.94504C18.0669 5.92902 18.0149 5.92295 17.9633 5.92718C17.9117 5.93142 17.8614 5.94587 17.8154 5.96972C17.7693 5.99357 17.7284 6.02635 17.6949 6.06618C17.6614 6.10601 17.636 6.15211 17.6201 6.20185C17.6078 6.24112 17.6014 6.28203 17.6012 6.32322V27.0131H12.409C12.4664 26.6628 12.4943 26.3083 12.4924 25.9533C12.4982 24.7306 12.1997 23.526 11.6244 22.4499V8.79621L11.6232 8.79684ZM7.43818 11.3931V10.5951H6.64954V11.3915L7.43818 11.3931ZM7.43818 14.5786V13.7807H6.64954V14.5764L7.43818 14.5786ZM9.37506 11.3931V10.5951H8.58766V11.3915L9.37506 11.3931ZM9.37506 14.5786V13.7807H8.58766V14.5764L9.37506 14.5786ZM20.7614 11.3931V10.5951H19.9727V11.3915L20.7614 11.3931ZM20.7614 14.5786V13.7807H19.9727V14.5764L20.7614 14.5786ZM20.7614 17.7642V16.9662H19.9727V17.7626L20.7614 17.7642ZM6.72425 23.4703C6.48685 23.4665 6.25612 23.5496 6.0748 23.7043C6.0011 23.7664 5.94148 23.8438 5.89998 23.9313C5.85848 24.0187 5.83606 24.1141 5.83424 24.211C5.83424 24.7559 6.30482 24.8544 6.77633 24.953C7.56745 25.1184 8.36043 25.2845 8.36043 26.4885C8.34845 26.8403 8.2197 27.1779 7.99484 27.447C7.76998 27.7162 7.46204 27.9013 7.12043 27.9727V28.3231C7.12043 28.4287 7.07885 28.53 7.00485 28.6046C6.93084 28.6793 6.83046 28.7213 6.7258 28.7213C6.62114 28.7213 6.52076 28.6793 6.44675 28.6046C6.37275 28.53 6.33117 28.4287 6.33117 28.3231V27.9918C6.02913 27.9338 5.74771 27.7961 5.51556 27.5927C5.35666 27.4565 5.22867 27.2874 5.14031 27.0969C5.05194 26.9063 5.00526 26.6988 5.00344 26.4885C5.00344 26.3829 5.04502 26.2816 5.11902 26.2069C5.19303 26.1323 5.29341 26.0903 5.39807 26.0903C5.50273 26.0903 5.60311 26.1323 5.67712 26.2069C5.75112 26.2816 5.7927 26.3829 5.7927 26.4885C5.79452 26.5854 5.81694 26.6808 5.85844 26.7682C5.89994 26.8556 5.95956 26.9331 6.03326 26.9952C6.21499 27.1503 6.44633 27.2334 6.68426 27.2292C6.89921 27.248 7.11289 27.181 7.27933 27.0424C7.44578 26.9039 7.55168 26.705 7.57427 26.4885C7.57427 25.9298 7.09749 25.8316 6.62226 25.7309C5.83424 25.566 5.04808 25.4015 5.04808 24.211C5.0499 24.0006 5.09658 23.7931 5.18495 23.6026C5.27331 23.4121 5.4013 23.243 5.5602 23.1068C5.78102 22.9132 6.04676 22.779 6.33272 22.7168V22.3764C6.33272 22.2708 6.3743 22.1695 6.4483 22.0949C6.52231 22.0202 6.62269 21.9782 6.72735 21.9782C6.83201 21.9782 6.93239 22.0202 7.0064 22.0949C7.0804 22.1695 7.12198 22.2708 7.12198 22.3764V22.7168C7.40795 22.779 7.67368 22.9132 7.8945 23.1068C8.0534 23.243 8.18139 23.4121 8.26975 23.6026C8.35812 23.7931 8.4048 24.0006 8.40662 24.211C8.40662 24.3166 8.36504 24.4179 8.29104 24.4926C8.21703 24.5672 8.11665 24.6092 8.01199 24.6092C7.90733 24.6092 7.80695 24.5672 7.73295 24.4926C7.65894 24.4179 7.61736 24.3166 7.61736 24.211C7.61554 24.1141 7.59312 24.0187 7.55162 23.9313C7.51012 23.8438 7.4505 23.7664 7.3768 23.7043C7.19467 23.5489 6.96271 23.4657 6.72425 23.4703Z" fill="black"/>
</svg>
