<svg width="33" height="29" viewBox="0 0 33 29" fill="none" xmlns="http://www.w3.org/2000/svg">
<g id="Group">
<path id="Vector" d="M28.8102 22.2466C28.6382 22.4194 28.3802 22.4194 28.2082 22.2466L26.8322 20.8642V25.1842C26.8322 25.4002 26.6602 25.6162 26.4022 25.6162C26.1442 25.6162 25.9722 25.4002 25.9722 25.1842V20.8642L24.5962 22.2466C24.5102 22.333 24.3812 22.3762 24.2952 22.3762C24.1662 22.3762 24.0802 22.333 23.9942 22.2466C23.8222 22.0738 23.8222 21.8147 23.9942 21.6419L26.1012 19.5251C26.1442 19.4819 26.1872 19.4387 26.2302 19.4387C26.3162 19.3955 26.4452 19.3955 26.5742 19.4387C26.6172 19.4387 26.6602 19.4819 26.7032 19.5251L28.8102 21.6419C28.9822 21.8147 28.9822 22.0738 28.8102 22.2466Z" fill="#1E81C4"/>
<path id="Vector_2" d="M7.65434 9.50203C6.14934 9.50203 4.90234 8.29242 4.90234 6.73722C4.90234 5.22522 6.10634 4.01562 7.65434 4.01562C9.15934 4.01562 10.3633 5.22522 10.3633 6.73722C10.3633 8.29242 9.15934 9.50203 7.65434 9.50203Z" fill="#1E81C4"/>
<path id="Vector_3" d="M26.832 16.5871V2.1583C26.832 1.4671 26.273 0.862305 25.542 0.862305H1.29C0.559 0.862305 0 1.4671 0 2.1583V21.6415C0 22.3327 0.559 22.9375 1.29 22.9375H20.511C20.726 26.0047 23.306 28.4671 26.402 28.4671C29.67 28.4671 32.336 25.7887 32.336 22.5055C32.293 19.3951 29.885 16.8031 26.832 16.5871ZM0.86 2.1583C0.86 1.9423 1.032 1.7263 1.29 1.7263H25.542C25.8 1.7263 25.972 1.9423 25.972 2.1583V14.8159L19.694 9.2863C19.522 9.1567 19.264 9.1567 19.135 9.2863L11.567 16.3711L8.084 12.9151C7.955 12.7855 7.697 12.7423 7.525 12.8719L0.86 17.7535V2.1583ZM26.402 27.6031C23.607 27.6031 21.371 25.3135 21.371 22.5055C21.371 19.6975 23.65 17.4079 26.402 17.4079C29.197 17.4079 31.476 19.6975 31.476 22.5055C31.433 25.3135 29.197 27.6031 26.402 27.6031Z" fill="#1E81C4"/>
</g>
</svg>
