<svg width="147" height="20" viewBox="0 0 147 20" fill="none" xmlns="http://www.w3.org/2000/svg">
<path d="M9.9837 0L12.2253 6.90982H19.4791L13.6106 11.1804L15.8522 18.0902L9.9837 13.8196L4.11521 18.0902L6.35678 11.1804L0.488281 6.90982H7.74212L9.9837 0Z" fill="#EAAF01"/>
<path d="M41.0452 0L43.2868 6.90982H50.5408L44.6723 11.1804L46.9137 18.0902L41.0452 13.8196L35.1767 18.0902L37.4183 11.1804L31.5498 6.90982H38.8037L41.0452 0Z" fill="#EAAF01"/>
<path d="M72.1069 0L74.3486 6.90982H81.6024L75.734 11.1804L77.9753 18.0902L72.1069 13.8196L66.2384 18.0902L68.4797 11.1804L62.6113 6.90982H69.8651L72.1069 0Z" fill="#EAAF01"/>
<path d="M103.168 0L105.41 6.90982H112.664L106.795 11.1804L109.037 18.0902L103.168 13.8196L97.3 18.0902L99.5413 11.1804L93.6729 6.90982H100.927L103.168 0Z" fill="#EAAF01"/>
<path d="M134.23 0L136.472 6.90982H143.725L137.857 11.1804L140.098 18.0902L134.23 13.8196L128.361 18.0902L130.603 11.1804L124.734 6.90982H131.988L134.23 0Z" fill="#EAAF01"/>
</svg>
