<svg width="51" height="51" viewBox="0 0 51 51" fill="none" xmlns="http://www.w3.org/2000/svg">
<path d="M42.6898 45.5356C42.6898 46.5017 42.3058 47.4284 41.6228 48.1114C40.9394 48.7945 40.013 49.1784 39.0469 49.1784H6.26102C5.29486 49.1784 4.3683 48.7945 3.68512 48.1114C3.00196 47.4284 2.61816 46.5017 2.61816 45.5356V5.46415C2.61816 4.49799 3.00196 3.57143 3.68512 2.88826C4.3683 2.20509 5.29486 1.82129 6.26102 1.82129H26.6093C27.5754 1.82129 28.502 2.20509 29.1851 2.88826L41.6228 15.3258C42.3058 16.0089 42.6898 16.9355 42.6898 17.9016V45.5356Z" stroke="#2121DE" stroke-linecap="round" stroke-linejoin="round"/>
<path d="M24.6885 23.2231H33.7956" stroke="#2121DE" stroke-linecap="round" stroke-linejoin="round"/>
<path d="M24.6885 35.8594H33.7956" stroke="#2121DE" stroke-linecap="round" stroke-linejoin="round"/>
<path d="M10.6016 35.6528L13.6539 38.7051L18.7411 31.583" stroke="#2121DE" stroke-linecap="round" stroke-linejoin="round"/>
<path d="M10.6016 22.789L13.6539 25.8413L18.7411 18.7192" stroke="#2121DE" stroke-linecap="round" stroke-linejoin="round"/>
</svg>
