<svg width="28" height="30" viewBox="0 0 28 30" fill="none" xmlns="http://www.w3.org/2000/svg">
<path d="M13.7576 9.53229C10.9037 9.53283 8.58168 11.8726 8.58168 14.7476C8.58168 15.198 8.94456 15.5636 9.39168 15.5636C9.8388 15.5636 10.2017 15.198 10.2017 14.7476C10.2017 12.7718 11.7968 11.1648 13.7576 11.1643C14.2047 11.1643 14.5676 10.7987 14.5676 10.3483C14.5676 9.89731 14.2047 9.53229 13.7576 9.53229ZM13.757 6.33846C9.15516 6.33901 5.4108 10.1116 5.4108 14.7476C5.4108 16.978 6.39036 18.6301 7.25544 20.0886C8.02386 21.385 8.68752 22.5045 8.68752 23.8819V27.2917C8.68698 28.0087 8.96508 28.6849 9.4689 29.1924C9.97272 29.7 10.6423 29.9796 11.3535 29.9796H16.1595C17.631 29.9796 18.8271 28.7736 18.8271 27.2928V23.883C18.8271 22.5051 19.4908 21.386 20.2592 20.0886C21.1243 18.6307 22.1044 16.9775 22.1038 14.7476C22.1049 10.1116 18.36 6.33901 13.757 6.33846ZM16.16 28.3476H11.3551C11.0759 28.3476 10.813 28.2372 10.6148 28.0386C10.4279 27.8493 10.3237 27.6018 10.3118 27.3385H17.2033C17.179 27.8983 16.7222 28.3476 16.16 28.3476ZM17.2082 25.7065H10.3075V24.6979L17.2076 24.699L17.2082 25.7065ZM18.8698 19.253C18.1786 20.4188 17.4668 21.6183 17.2649 23.0675L10.2508 23.0665C10.0489 21.6172 9.33768 20.4188 8.64594 19.2519C7.81542 17.8517 7.0308 16.5276 7.0308 14.7482C7.0308 11.0114 10.0483 7.97155 13.757 7.97101C17.4668 7.97155 20.4849 11.0114 20.4849 14.7482C20.4849 16.5276 19.7003 17.8511 18.8698 19.253ZM26.7057 13.9316L24.3448 13.9327C23.8977 13.9327 23.5354 14.2983 23.5354 14.7487C23.5354 15.1991 23.8982 15.5647 24.3454 15.5647L26.7062 15.5636C27.1534 15.5636 27.5157 15.198 27.5157 14.7476C27.5157 14.2972 27.1528 13.9316 26.7057 13.9316ZM3.98034 14.7476C3.98034 14.2972 3.61746 13.9316 3.17034 13.9316L0.809459 13.9327C0.362339 13.9327 0 14.2983 0 14.7487C0 15.1991 0.36288 15.5647 0.81 15.5647L3.17088 15.5636C3.618 15.5636 3.98034 15.198 3.98034 14.7476ZM13.7576 4.8985C14.2047 4.8985 14.5676 4.53293 14.5676 4.0825L14.5681 1.70467C14.5681 1.25424 14.2058 0.888672 13.7581 0.888672C13.311 0.888672 12.9481 1.2537 12.9481 1.70413L12.9476 4.08195C12.9476 4.53293 13.3099 4.8985 13.7576 4.8985ZM22.9268 10.2313C23.0645 10.2313 23.2038 10.196 23.3312 10.122L25.3751 8.9328C25.7629 8.70758 25.8952 8.20874 25.6716 7.81814C25.448 7.4281 24.9518 7.29373 24.5651 7.51949L22.5212 8.70758C22.1335 8.9328 22.0012 9.43219 22.2248 9.82278C22.3749 10.0844 22.6471 10.2313 22.9268 10.2313ZM4.18392 19.3738L2.14002 20.563C1.7523 20.7882 1.62 21.2876 1.84356 21.6776C1.99314 21.9398 2.26584 22.0856 2.54556 22.0856C2.68326 22.0856 2.82258 22.0508 2.95002 21.9763L4.99392 20.7871C5.38164 20.5619 5.51394 20.0636 5.29038 19.6724C5.06682 19.2813 4.57002 19.1486 4.18392 19.3738ZM18.6467 6.21824C18.7742 6.29277 18.9135 6.32758 19.0512 6.32758C19.3309 6.32758 19.6031 6.1807 19.7532 5.91958L20.9331 3.86054C21.1567 3.46941 21.0244 2.97056 20.6366 2.74534C20.2495 2.52067 19.7537 2.65341 19.5302 3.04454L18.3503 5.10358C18.1267 5.49363 18.259 5.99302 18.6467 6.21824ZM25.3757 20.5641L23.3318 19.3738C22.9451 19.1486 22.45 19.2813 22.2253 19.6724C22.0018 20.0625 22.1341 20.5619 22.5218 20.7871L24.5657 21.9774C24.6931 22.0519 24.8324 22.0867 24.9701 22.0867C25.2499 22.0867 25.522 21.9398 25.6721 21.6787C25.8957 21.2887 25.7629 20.7893 25.3757 20.5641ZM4.99392 8.70867L2.95002 7.51894C2.56338 7.29318 2.0682 7.42701 1.84356 7.81706C1.62 8.20819 1.7523 8.7065 2.14002 8.93226L4.18392 10.122C4.31136 10.1965 4.45068 10.2313 4.58838 10.2313C4.8681 10.2313 5.13972 10.085 5.29038 9.82333C5.5134 9.43328 5.3811 8.93389 4.99392 8.70867ZM7.7625 5.91958C7.91208 6.1807 8.18478 6.32758 8.4645 6.32758C8.6022 6.32758 8.74152 6.29277 8.86896 6.21824C9.25668 5.99302 9.38898 5.49363 9.16542 5.10358L7.98498 3.04454C7.76196 2.65286 7.26516 2.51958 6.87852 2.74589C6.4908 2.9711 6.3585 3.46995 6.58206 3.86054L7.7625 5.91958Z" fill="#4267B2"/>
</svg>
