<svg width="24" height="25" viewBox="0 0 24 25" fill="none" xmlns="http://www.w3.org/2000/svg">
<path d="M12.0001 1C16.1603 1 19.5329 4.36153 19.5329 8.5082C19.5329 12.6549 16.1603 16.0164 12.0001 16.0164C7.83983 16.0164 4.4673 12.6549 4.4673 8.5082C4.4673 4.36153 7.83983 1 12.0001 1ZM12.0001 1C8.65135 1 5.81268 3.17799 4.83276 6.1903C5.87575 6.75692 7.07179 7.07891 8.34327 7.07891C10.5328 7.07891 12.4987 6.12408 13.8445 4.60936C15.1904 6.12404 17.1562 7.07886 19.3458 7.07886C19.3625 7.07886 19.3793 7.0788 19.3962 7.0787C18.7264 3.61572 15.6699 1 12.0001 1ZM14.4595 11.4133C14.4595 11.4133 13.8345 12.6391 11.9999 12.6391C10.1652 12.6391 9.54017 11.4133 9.54017 11.4133M23 24C22.2526 21.6773 20.7847 19.6513 18.8079 18.2139C16.8309 16.7765 14.447 16.0019 12 16.0019C9.55291 16.0019 7.16907 16.7765 5.19211 18.2139C3.21518 19.6513 1.74725 21.6773 1 24H23Z" stroke="#4147D5" stroke-linecap="round" stroke-linejoin="round"/>
</svg>
