<svg width="15" height="20" viewBox="0 0 15 20" fill="none" xmlns="http://www.w3.org/2000/svg">
<path d="M0 2.50004C0 1.83699 0.263392 1.20109 0.732233 0.732245C1.20107 0.263396 1.83696 0 2.5 0L12.5 0C13.163 0 13.7989 0.263396 14.2678 0.732245C14.7366 1.20109 15 1.83699 15 2.50004V19.3753C14.9999 19.4884 14.9692 19.5993 14.9111 19.6963C14.853 19.7932 14.7697 19.8726 14.67 19.926C14.5703 19.9794 14.4581 20.0047 14.3451 19.9993C14.2322 19.9939 14.1229 19.958 14.0287 19.8953L7.5 16.3765L0.97125 19.8953C0.877132 19.958 0.767788 19.9939 0.654864 19.9993C0.541941 20.0047 0.429666 19.9794 0.329999 19.926C0.230332 19.8726 0.147005 19.7932 0.0888926 19.6963C0.03078 19.5993 5.84005e-05 19.4884 0 19.3753V2.50004ZM2.5 1.25002C2.16848 1.25002 1.85054 1.38172 1.61612 1.61614C1.3817 1.85057 1.25 2.16851 1.25 2.50004V18.2078L7.15375 15.1052C7.25633 15.037 7.37679 15.0006 7.5 15.0006C7.62321 15.0006 7.74367 15.037 7.84625 15.1052L13.75 18.2078V2.50004C13.75 2.16851 13.6183 1.85057 13.3839 1.61614C13.1495 1.38172 12.8315 1.25002 12.5 1.25002H2.5Z" fill="#A8A8A8"/>
</svg>
