<svg width="31" height="26" viewBox="0 0 31 26" fill="none" xmlns="http://www.w3.org/2000/svg">
<path d="M28.8313 13.2506C28.2442 12.6663 27.5512 12.198 26.7889 11.8702C27.3025 11.5071 27.7339 11.0408 28.055 10.5015C28.3761 9.96218 28.5798 9.36185 28.653 8.73932C28.7262 8.11678 28.6673 7.48589 28.48 6.88744C28.2926 6.28898 27.9811 5.73628 27.5656 5.26507C27.1501 4.79386 26.6397 4.41462 26.0676 4.15187C25.4954 3.88912 24.8742 3.74872 24.2441 3.73973C23.614 3.73073 22.989 3.85336 22.4095 4.09968C21.83 4.34599 21.3089 4.71051 20.88 5.16968C20.583 3.97371 19.8917 2.91118 18.9165 2.15168C17.9413 1.39218 16.7384 0.979492 15.4998 0.979492C14.2612 0.979492 13.0583 1.39218 12.0831 2.15168C11.1079 2.91118 10.4166 3.97371 10.1196 5.16968C9.69048 4.7111 9.16938 4.34715 8.59 4.10135C8.01062 3.85555 7.38584 3.73337 6.75602 3.74269C6.1262 3.752 5.50535 3.89262 4.93357 4.15545C4.3618 4.41829 3.85182 4.79749 3.43657 5.26856C3.02132 5.73964 2.71005 6.29211 2.52285 6.89029C2.33566 7.48847 2.2767 8.11905 2.3498 8.7413C2.4229 9.36355 2.62642 9.96363 2.94722 10.5028C3.26802 11.0419 3.69897 11.5081 4.21221 11.8713C3.03273 12.3796 2.02822 13.2195 1.32207 14.2878C0.615917 15.3561 0.238891 16.6063 0.237305 17.8848V20.99C0.238382 21.9047 0.604184 22.7816 1.25447 23.4283C1.90475 24.0751 2.78642 24.4389 3.70605 24.44H8.5808C8.90133 24.8669 9.3173 25.2138 9.79583 25.4533C10.2744 25.6928 10.8023 25.8184 11.338 25.82H19.663C20.1985 25.8181 20.7262 25.6925 21.2044 25.453C21.6827 25.2135 22.0984 24.8667 22.4188 24.44H27.2936C28.2132 24.4389 29.0949 24.0751 29.7451 23.4283C30.3954 22.7816 30.7612 21.9047 30.7623 20.99V17.8848C30.7647 17.0237 30.5952 16.1707 30.2638 15.3752C29.9323 14.5797 29.4454 13.8576 28.8313 13.2506ZM24.1719 5.12C24.7894 5.12 25.393 5.30211 25.9064 5.64331C26.4198 5.98452 26.82 6.46948 27.0563 7.03688C27.2926 7.60428 27.3544 8.22862 27.2339 8.83097C27.1135 9.43332 26.8161 9.98661 26.3795 10.4209C25.9429 10.8551 25.3866 11.1509 24.7809 11.2707C24.1753 11.3905 23.5476 11.329 22.9771 11.094C22.4066 10.859 21.919 10.461 21.576 9.95033C21.2329 9.43968 21.0498 8.83933 21.0498 8.22518C21.0507 7.4019 21.3799 6.6126 21.9652 6.03045C22.5505 5.44831 23.3441 5.12087 24.1719 5.12ZM20.4578 12.4715C19.8395 11.9426 19.14 11.5157 18.3858 11.2071C18.9941 10.8368 19.5255 10.3541 19.9513 9.78513C20.2666 10.6252 20.8271 11.3524 21.5608 11.8735C21.175 12.0378 20.8057 12.2381 20.4578 12.4715ZM15.4998 2.36C16.3231 2.36 17.1278 2.6028 17.8124 3.05771C18.4969 3.51262 19.0304 4.1592 19.3455 4.91569C19.6605 5.67217 19.7429 6.50459 19.5823 7.30767C19.4217 8.11075 19.0253 8.84843 18.4431 9.42742C17.861 10.0064 17.1193 10.4007 16.3119 10.5604C15.5044 10.7202 14.6675 10.6382 13.9069 10.3249C13.1463 10.0115 12.4962 9.48088 12.0388 8.80006C11.5814 8.11924 11.3373 7.31881 11.3373 6.5C11.3385 5.40236 11.7774 4.35001 12.5578 3.57387C13.3381 2.79772 14.3962 2.36117 15.4998 2.36ZM10.5418 12.4715C10.1944 12.2381 9.8256 12.0379 9.44032 11.8735C10.174 11.3524 10.7344 10.6252 11.0498 9.78513C11.4756 10.3541 12.007 10.8368 12.6153 11.2071C11.8606 11.5156 11.1605 11.9425 10.5418 12.4715ZM3.70605 8.22518C3.70598 7.61102 3.88903 7.01063 4.23204 6.49993C4.57505 5.98924 5.06262 5.59118 5.6331 5.3561C6.20357 5.12102 6.83133 5.05948 7.43697 5.17925C8.04262 5.29902 8.59895 5.59473 9.03561 6.02899C9.47228 6.46324 9.76966 7.01653 9.89016 7.61888C10.0107 8.22124 9.94885 8.84561 9.71256 9.41303C9.47627 9.98045 9.0761 10.4654 8.56268 10.8067C8.04925 11.1479 7.44562 11.33 6.82811 11.33C6.00043 11.3291 5.20689 11.0017 4.62159 10.4197C4.03629 9.83761 3.70703 9.04839 3.70605 8.22518ZM3.70605 23.06C3.15425 23.0594 2.62522 22.8411 2.23504 22.4531C1.84486 22.065 1.62539 21.5388 1.6248 20.99V17.8848C1.62347 16.9637 1.86969 16.059 2.33798 15.2644C2.80627 14.4697 3.47961 13.814 4.28829 13.3651C5.09696 12.9162 6.01158 12.6904 6.93744 12.7112C7.8633 12.732 8.76676 12.9985 9.55427 13.4832C8.46282 14.8271 7.86782 16.5027 7.86855 18.2304V22.3704C7.86855 22.6021 7.8921 22.8333 7.93885 23.0604L3.70605 23.06ZM21.7436 22.37C21.743 22.9188 21.5235 23.445 21.1333 23.8331C20.7431 24.2211 20.2141 24.4394 19.6623 24.44H11.3373C10.7855 24.4394 10.2565 24.2211 9.86629 23.8331C9.4761 23.445 9.25664 22.9188 9.25605 22.37V18.23C9.25605 16.583 9.91388 15.0035 11.0848 13.8389C12.2557 12.6743 13.8439 12.02 15.4998 12.02C17.1558 12.02 18.7439 12.6743 19.9148 13.8389C21.0857 15.0035 21.7436 16.583 21.7436 18.23V22.37ZM29.3748 20.99C29.3742 21.5388 29.1548 22.065 28.7646 22.4531C28.3744 22.8411 27.8454 23.0594 27.2936 23.06H23.0608C23.1075 22.8329 23.1311 22.6018 23.1311 22.37V18.23C23.1318 16.5024 22.5368 14.8268 21.4453 13.4828C22.2651 12.98 23.2088 12.7125 24.1719 12.71C25.5516 12.7105 26.8747 13.2558 27.8504 14.2262C28.826 15.1966 29.3743 16.5125 29.3748 17.8848V20.99Z" fill="black"/>
</svg>
