<svg width="15" height="24" viewBox="0 0 15 24" fill="none" xmlns="http://www.w3.org/2000/svg">
<path d="M1.43652 23.0557C1.34996 23.0557 1.26424 23.0385 1.18426 23.0052C1.10429 22.9718 1.03162 22.9229 0.970408 22.8612C0.909197 22.7995 0.860643 22.7263 0.827517 22.6458C0.794391 22.5652 0.777342 22.4788 0.777344 22.3916V0.808105C0.777342 0.720899 0.794391 0.634546 0.827517 0.553977C0.860643 0.473408 0.909197 0.400202 0.970408 0.338537C1.03162 0.276873 1.10429 0.227959 1.18426 0.194587C1.26424 0.161216 1.34996 0.144041 1.43652 0.144043H13.5632C13.6729 0.144042 13.7809 0.171635 13.8774 0.224319C13.9739 0.277004 14.0557 0.353114 14.1156 0.445746C14.1755 0.538378 14.2115 0.644603 14.2203 0.754785C14.2291 0.864968 14.2104 0.975622 14.1661 1.07671L12.1719 5.61908L14.146 9.38274C14.1991 9.48393 14.2253 9.59723 14.2221 9.71165C14.2189 9.82606 14.1865 9.9377 14.1278 10.0357C14.0692 10.1338 13.9864 10.2149 13.8874 10.2712C13.7885 10.3275 13.6768 10.357 13.5632 10.357H2.0957V22.3916C2.09571 22.4788 2.07866 22.5652 2.04553 22.6458C2.0124 22.7263 1.96385 22.7995 1.90264 22.8612C1.84143 22.9229 1.76876 22.9718 1.68878 23.0052C1.60881 23.0385 1.52309 23.0557 1.43652 23.0557ZM2.0957 9.02891H12.4693L10.857 5.95503C10.8105 5.86634 10.7845 5.76818 10.781 5.66792C10.7776 5.56767 10.7967 5.46792 10.837 5.37618L12.5509 1.47217H2.0957V9.02891Z" fill="#CACACA"/>
</svg>
